<svg width="25" height="25" viewBox="0 0 25 25" fill="none" xmlns="http://www.w3.org/2000/svg">
<path d="M3.85156 11.5815C3.85156 9.68173 3.85262 8.30721 3.99355 7.25902C4.13254 6.22521 4.39929 5.58401 4.87669 5.10661C5.35409 4.62921 5.99529 4.36246 7.0291 4.22347C8.07729 4.08254 9.45181 4.08148 11.3516 4.08148H13.3516C15.2513 4.08148 16.6258 4.08254 17.674 4.22347C18.7078 4.36246 19.349 4.62921 19.8264 5.10661C20.3038 5.58401 20.5706 6.22521 20.7096 7.25902C20.8505 8.30721 20.8516 9.68173 20.8516 11.5815V13.5815C20.8516 15.4812 20.8505 16.8558 20.7096 17.9039C20.5706 18.9378 20.3038 19.579 19.8264 20.0564C19.349 20.5338 18.7078 20.8005 17.674 20.9395C16.6258 21.0804 15.2513 21.0815 13.3516 21.0815H11.3516C9.45181 21.0815 8.07729 21.0804 7.0291 20.9395C5.99529 20.8005 5.35409 20.5338 4.87669 20.0564C4.39929 19.579 4.13254 18.9378 3.99355 17.9039C3.85262 16.8558 3.85156 15.4812 3.85156 13.5815V11.5815Z" stroke="#323232"/>
<path d="M12.3516 8.58148L12.3516 16.5815" stroke="#323232" stroke-linecap="round" stroke-linejoin="round"/>
<path d="M16.3516 12.5815L8.35156 12.5815" stroke="#323232" stroke-linecap="round" stroke-linejoin="round"/>
</svg>
