<svg width="17" height="17" viewBox="0 0 17 17" fill="none" xmlns="http://www.w3.org/2000/svg">
<path d="M5.13281 4.61729C5.13281 3.77721 5.13281 3.35717 5.2963 3.0363C5.44011 2.75406 5.66958 2.52459 5.95183 2.38078C6.27269 2.21729 6.69273 2.21729 7.53281 2.21729H9.09334C9.4489 2.21729 9.62669 2.21729 9.79459 2.25639C9.94347 2.29107 10.0862 2.34831 10.2178 2.42611C10.3661 2.51386 10.4947 2.6367 10.7517 2.88239L12.3912 4.44954C12.6646 4.71092 12.8013 4.84161 12.8992 4.99585C12.986 5.13258 13.0501 5.28246 13.089 5.43966C13.1328 5.61701 13.1328 5.80615 13.1328 6.18443V9.81729C13.1328 10.6574 13.1328 11.0774 12.9693 11.3983C12.8255 11.6805 12.596 11.91 12.3138 12.0538C11.9929 12.2173 11.5729 12.2173 10.7328 12.2173H7.53281C6.69273 12.2173 6.27269 12.2173 5.95183 12.0538C5.66958 11.91 5.44011 11.6805 5.2963 11.3983C5.13281 11.0774 5.13281 10.6574 5.13281 9.81729V4.61729Z" stroke="#323232"/>
<path d="M3.30078 4.04736V10.0474C3.30078 11.4475 3.30078 12.1476 3.57326 12.6823C3.81295 13.1527 4.1954 13.5352 4.6658 13.7749C5.20058 14.0474 5.90065 14.0474 7.30078 14.0474H11.3008" stroke="#323232" stroke-linecap="round"/>
<path d="M9.40234 2.21729V3.81729C9.40234 4.65736 9.40234 5.0774 9.56583 5.39827C9.70964 5.68051 9.93911 5.90998 10.2214 6.0538C10.5422 6.21729 10.9623 6.21729 11.8023 6.21729H13.4023" stroke="#323232"/>
</svg>
