<svg width="16" height="16" viewBox="0 0 16 16" fill="none" xmlns="http://www.w3.org/2000/svg">
<path d="M4.78125 4.48496C4.78125 3.64488 4.78125 3.22484 4.94474 2.90398C5.08855 2.62173 5.31802 2.39226 5.60026 2.24845C5.92113 2.08496 6.34117 2.08496 7.18125 2.08496H8.74178C9.09734 2.08496 9.27513 2.08496 9.44302 2.12407C9.5919 2.15875 9.73461 2.21598 9.86619 2.29379C10.0146 2.38153 10.1431 2.50438 10.4001 2.75007L12.0396 4.31721C12.3131 4.5786 12.4498 4.70929 12.5477 4.86353C12.6345 5.00025 12.6985 5.15013 12.7374 5.30734C12.7813 5.48468 12.7813 5.67382 12.7813 6.05211V9.68496C12.7813 10.525 12.7813 10.9451 12.6178 11.2659C12.474 11.5482 12.2445 11.7777 11.9622 11.9215C11.6414 12.085 11.2213 12.085 10.3813 12.085H7.18125C6.34117 12.085 5.92113 12.085 5.60026 11.9215C5.31802 11.7777 5.08855 11.5482 4.94474 11.2659C4.78125 10.9451 4.78125 10.525 4.78125 9.68496V4.48496Z" stroke="#323232"/>
<path d="M2.94922 3.91504V9.91504C2.94922 11.3152 2.94922 12.0152 3.2217 12.55C3.46139 13.0204 3.84384 13.4029 4.31424 13.6426C4.84902 13.915 5.54909 13.915 6.94922 13.915H10.9492" stroke="#323232" stroke-linecap="round"/>
<path d="M9.05078 2.08496V3.68496C9.05078 4.52504 9.05078 4.94508 9.21427 5.26595C9.35808 5.54819 9.58755 5.77766 9.8698 5.92147C10.1907 6.08496 10.6107 6.08496 11.4508 6.08496H13.0508" stroke="#323232"/>
</svg>
