<svg width="24" height="25" viewBox="0 0 24 25" fill="none" xmlns="http://www.w3.org/2000/svg">
<path d="M7 5.64922C7 4.52911 7 3.96906 7.21799 3.54124C7.40973 3.16491 7.71569 2.85895 8.09202 2.66721C8.51984 2.44922 9.07989 2.44922 10.2 2.44922H13.6745C14.1637 2.44922 14.4083 2.44922 14.6385 2.50448C14.8425 2.55347 15.0376 2.63428 15.2166 2.74394C15.4184 2.86762 15.5914 3.04057 15.9373 3.38648L19.0627 6.51196C19.4086 6.85786 19.5816 7.03082 19.7053 7.23265C19.8149 7.41159 19.8957 7.60668 19.9447 7.81076C20 8.04093 20 8.28552 20 8.7747V16.2492C20 17.3693 20 17.9294 19.782 18.3572C19.5903 18.7335 19.2843 19.0395 18.908 19.2312C18.4802 19.4492 17.9201 19.4492 16.8 19.4492H10.2C9.07989 19.4492 8.51984 19.4492 8.09202 19.2312C7.71569 19.0395 7.40973 18.7335 7.21799 18.3572C7 17.9294 7 17.3693 7 16.2492V5.64922Z" stroke="#323232"/>
<path d="M4 5.44922V16.0492C4 18.2894 4 19.4095 4.43597 20.2652C4.81947 21.0178 5.43139 21.6298 6.18404 22.0132C7.03968 22.4492 8.15979 22.4492 10.4 22.4492H17" stroke="#323232" stroke-linecap="round"/>
<path d="M14 2.44922V6.04922C14 6.8893 14 7.30934 14.1635 7.6302C14.3073 7.91245 14.5368 8.14192 14.819 8.28573C15.1399 8.44922 15.5599 8.44922 16.4 8.44922H20" stroke="#323232"/>
</svg>
