<svg width="25" height="25" viewBox="0 0 25 25" fill="none" xmlns="http://www.w3.org/2000/svg">
<path fill-rule="evenodd" clip-rule="evenodd" d="M16.2718 12.9311C16.3241 12.673 16.3516 12.4059 16.3516 12.1323C16.3516 9.92319 14.5607 8.13232 12.3516 8.13232C12.078 8.13232 11.8109 8.15978 11.5527 8.2121L12.4755 9.13484C14.0338 9.19815 15.2857 10.4501 15.349 12.0084L16.2718 12.9311ZM9.74467 10.6467C9.49451 11.0847 9.35156 11.5918 9.35156 12.1323C9.35156 13.7892 10.6947 15.1323 12.3516 15.1323C12.8921 15.1323 13.3992 14.9894 13.8372 14.7392L14.5636 15.4656C13.93 15.8869 13.1695 16.1323 12.3516 16.1323C10.1424 16.1323 8.35156 14.3415 8.35156 12.1323C8.35156 11.3144 8.59704 10.5539 9.01833 9.92032L9.74467 10.6467Z" fill="#323232"/>
<path fill-rule="evenodd" clip-rule="evenodd" d="M18.9115 15.6308C19.7529 14.8727 20.4397 14.1067 20.9263 13.5159L20.9851 13.4447C21.3156 13.0453 21.6226 12.6744 21.6226 12.1323C21.6226 11.5903 21.3156 11.2193 20.9851 10.8199L20.9263 10.7487C20.2013 9.86855 19.0322 8.5996 17.5692 7.54704C16.1102 6.49733 14.3162 5.63232 12.3523 5.63232C11.3496 5.63232 10.3911 5.85783 9.49894 6.21829L10.276 6.99532C10.9463 6.76595 11.6419 6.63232 12.3523 6.63232C14.0241 6.63232 15.6142 7.37239 16.9852 8.35878C18.3523 9.34234 19.4593 10.5405 20.1544 11.3845C20.5788 11.8997 20.6226 11.9888 20.6226 12.1323C20.6226 12.2758 20.5788 12.3649 20.1544 12.8802C19.6799 13.4563 19.0134 14.1974 18.2034 14.9227L18.9115 15.6308ZM8.81578 7.65646C8.43746 7.86879 8.07124 8.10568 7.71943 8.35878C6.35236 9.34234 5.24535 10.5405 4.55022 11.3845C4.12586 11.8997 4.08203 11.9888 4.08203 12.1323C4.08203 12.2758 4.12586 12.3649 4.55022 12.8802C5.24535 13.7241 6.35236 14.9223 7.71943 15.9059C9.09046 16.8923 10.6805 17.6323 12.3523 17.6323C14.0241 17.6323 15.6142 16.8923 16.9852 15.9059C17.0007 15.8947 17.0162 15.8835 17.0316 15.8723L17.7469 16.5876C17.6882 16.6313 17.6289 16.6746 17.5692 16.7176C16.1102 17.7673 14.3162 18.6323 12.3523 18.6323C10.3884 18.6323 8.59445 17.7673 7.13542 16.7176C5.67243 15.6651 4.50329 14.3961 3.77833 13.5159L3.71953 13.4447C3.389 13.0453 3.08203 12.6744 3.08203 12.1323C3.08203 11.5903 3.389 11.2193 3.71953 10.8199L3.77833 10.7487C4.50329 9.86855 5.67243 8.59959 7.13542 7.54704C7.43767 7.32958 7.75429 7.12005 8.08382 6.9245L8.81578 7.65646Z" fill="#323232"/>
<path d="M5.35156 2.13232L21.3516 18.1323" stroke="#323232"/>
</svg>
