<svg width="24" height="25" viewBox="0 0 24 25" fill="none" xmlns="http://www.w3.org/2000/svg">
<path fill-rule="evenodd" clip-rule="evenodd" d="M15.9202 13.2867C15.9725 13.0286 16 12.7615 16 12.4879C16 10.2788 14.2091 8.48792 12 8.48792C11.7264 8.48792 11.4593 8.51538 11.2012 8.56769L12.7295 10.096C13.5236 10.3379 14.15 10.9643 14.3919 11.7584L15.9202 13.2867ZM9.76246 11.3716C9.5945 11.7076 9.5 12.0867 9.5 12.4879C9.5 13.8686 10.6193 14.9879 12 14.9879C12.4012 14.9879 12.7803 14.8934 13.1163 14.7255L14.212 15.8212C13.5784 16.2424 12.8179 16.4879 12 16.4879C9.79086 16.4879 8 14.6971 8 12.4879C8 11.67 8.24547 10.9095 8.66676 10.2759L9.76246 11.3716Z" fill="#323232"/>
<path fill-rule="evenodd" clip-rule="evenodd" d="M18.7369 16.1634C19.5861 15.3972 20.278 14.625 20.7677 14.0304C20.7902 14.0031 20.8132 13.9755 20.8363 13.9476C21.1563 13.5626 21.521 13.1236 21.521 12.4879C21.521 11.8522 21.1563 11.4133 20.8363 11.0282C20.8132 11.0003 20.7902 10.9727 20.7677 10.9454C20.0353 10.0562 18.8506 8.7695 17.3636 7.6997C15.8826 6.63415 14.0377 5.73792 12.0007 5.73792C10.9236 5.73792 9.90014 5.98854 8.95578 6.3823L10.1221 7.5486C10.7332 7.35097 11.3622 7.23792 12.0007 7.23792C13.5996 7.23792 15.1386 7.94675 16.4876 8.91731C17.8307 9.88361 18.9222 11.0641 19.6099 11.899C19.8177 12.1514 19.92 12.2787 19.9814 12.3815C20.0213 12.4484 20.0212 12.4674 20.021 12.485L20.021 12.4879L20.021 12.4908C20.0212 12.5084 20.0213 12.5274 19.9814 12.5944C19.92 12.6971 19.8177 12.8245 19.6099 13.0768C19.1383 13.6493 18.4769 14.3843 17.6748 15.1013L18.7369 16.1634ZM8.64801 8.19585C8.25778 8.41127 7.87887 8.65471 7.51387 8.91731C6.17077 9.88361 5.07931 11.0641 4.39163 11.899C4.18379 12.1514 4.08145 12.2787 4.02013 12.3815C3.98021 12.4484 3.98034 12.4674 3.98046 12.485L3.98047 12.4879L3.98046 12.4908C3.98034 12.5084 3.98021 12.5274 4.02013 12.5944C4.08145 12.6971 4.18379 12.8245 4.39163 13.0768C5.0793 13.9117 6.17077 15.0922 7.51387 16.0585C8.86289 17.0291 10.4019 17.7379 12.0007 17.7379C13.5996 17.7379 15.1386 17.0291 16.4876 16.0585C16.4921 16.0553 16.4966 16.0521 16.501 16.0489L17.574 17.1219C17.5046 17.1737 17.4345 17.2252 17.3636 17.2761C15.8826 18.3417 14.0377 19.2379 12.0007 19.2379C9.96383 19.2379 8.11889 18.3417 6.63785 17.2761C5.15089 16.2063 3.96621 14.9197 3.2338 14.0304C3.21126 14.0031 3.18833 13.9755 3.16516 13.9476C2.8452 13.5626 2.48047 13.1236 2.48047 12.4879C2.48047 11.8522 2.8452 11.4133 3.16516 11.0282L3.16527 11.0281C3.1884 11.0003 3.21129 10.9727 3.2338 10.9454C3.96621 10.0562 5.15089 8.7695 6.63785 7.6997C6.92832 7.49072 7.23278 7.28825 7.54995 7.09778L8.64801 8.19585Z" fill="#323232"/>
<path d="M5 2.48792L21 18.4879" stroke="#323232"/>
</svg>
