<svg width="17" height="17" viewBox="0 0 17 17" fill="none" xmlns="http://www.w3.org/2000/svg">
<path d="M6.09556 10.9895C6.19156 11.1799 6.19156 11.3704 6.19156 11.5609C6.19156 12.6085 5.32756 13.4656 4.27156 13.4656C3.21556 13.4656 2.35156 12.6085 2.35156 11.5609C2.35156 10.5133 3.21556 9.65612 4.27156 9.65612C4.46356 9.65612 4.55956 9.65612 4.65556 9.75136M7.53556 9.56089L11.5676 13.4656H14.2556L6.09556 5.37041C6.19156 5.17993 6.19156 5.0847 6.19156 4.89422C6.19156 3.8466 5.32756 2.98946 4.27156 2.98946C3.21556 2.98946 2.35156 3.8466 2.35156 4.89422C2.35156 5.94184 3.21556 6.79898 4.27156 6.79898C4.46356 6.79898 4.65556 6.79898 4.75156 6.70374L6.19156 8.22755M7.53556 9.56089L6.19156 8.22755M7.53556 9.56089L5.51956 10.2276L6.19156 8.22755M8.49556 5.8466L11.6636 2.79898H14.3516L9.93556 7.27517" stroke="#323232" stroke-miterlimit="10" stroke-linecap="round" stroke-linejoin="round"/>
</svg>
