<svg width="24" height="25" viewBox="0 0 24 25" fill="none" xmlns="http://www.w3.org/2000/svg">
<path d="M8.616 16.7349C8.76 17.0206 8.76 17.3064 8.76 17.5921C8.76 19.1635 7.464 20.4492 5.88 20.4492C4.296 20.4492 3 19.1635 3 17.5921C3 16.0206 4.296 14.7349 5.88 14.7349C6.168 14.7349 6.312 14.7349 6.456 14.8778M10.776 14.5921L16.824 20.4492H20.856L8.616 8.30636C8.76 8.02065 8.76 7.87779 8.76 7.59208C8.76 6.02065 7.464 4.73493 5.88 4.73493C4.296 4.73493 3 6.02065 3 7.59208C3 9.1635 4.296 10.4492 5.88 10.4492C6.168 10.4492 6.456 10.4492 6.6 10.3064L8.76 12.5921M10.776 14.5921L8.76 12.5921M10.776 14.5921L7.752 15.5921L8.76 12.5921M12.216 9.02065L16.968 4.44922H21L14.376 11.1635" stroke="#323232" stroke-miterlimit="10" stroke-linecap="round" stroke-linejoin="round"/>
</svg>
