<svg width="16" height="16" viewBox="0 0 16 16" fill="none" xmlns="http://www.w3.org/2000/svg">
<path d="M5.744 10.8572C5.84 11.0477 5.84 11.2382 5.84 11.4287C5.84 12.4763 4.976 13.3334 3.92 13.3334C2.864 13.3334 2 12.4763 2 11.4287C2 10.381 2.864 9.52389 3.92 9.52389C4.112 9.52389 4.208 9.52389 4.304 9.61913M7.184 9.42865L11.216 13.3334H13.904L5.744 5.23818C5.84 5.0477 5.84 4.95246 5.84 4.76199C5.84 3.71437 4.976 2.85722 3.92 2.85722C2.864 2.85722 2 3.71437 2 4.76199C2 5.80961 2.864 6.66675 3.92 6.66675C4.112 6.66675 4.304 6.66675 4.4 6.57151L5.84 8.09532M7.184 9.42865L5.84 8.09532M7.184 9.42865L5.168 10.0953L5.84 8.09532M8.144 5.71437L11.312 2.66675H14L9.584 7.14294" stroke="#323232" stroke-miterlimit="10" stroke-linecap="round" stroke-linejoin="round"/>
</svg>
