<svg width="24" height="25" viewBox="0 0 24 25" fill="none" xmlns="http://www.w3.org/2000/svg">
<path d="M19.5 9.94916V9.14916C19.5 8.02905 19.5 7.469 19.282 7.04118C19.0903 6.66485 18.7843 6.35889 18.408 6.16714C17.9802 5.94916 17.4201 5.94916 16.3 5.94916H7.7C6.5799 5.94916 6.01984 5.94916 5.59202 6.16714C5.21569 6.35889 4.90973 6.66485 4.71799 7.04118C4.5 7.469 4.5 8.02905 4.5 9.14916V9.94916M19.5 9.94916V16.7492C19.5 17.8693 19.5 18.4293 19.282 18.8571C19.0903 19.2335 18.7843 19.5394 18.408 19.7312C17.9802 19.9492 17.4201 19.9492 16.3 19.9492H7.7C6.57989 19.9492 6.01984 19.9492 5.59202 19.7312C5.21569 19.5394 4.90973 19.2335 4.71799 18.8571C4.5 18.4293 4.5 17.8693 4.5 16.7492V9.94916M19.5 9.94916H4.5" stroke="white"/>
<path d="M8.5 3.94916L8.5 7.94916M15.5 3.94916L15.5 7.94916" stroke="white" stroke-linecap="round"/>
<path d="M8 12.9492H10" stroke="white" stroke-linecap="round"/>
<path d="M14 12.9492H16" stroke="white" stroke-linecap="round"/>
<path d="M8 16.9492H10" stroke="white" stroke-linecap="round"/>
<path d="M14 16.9492H16" stroke="white" stroke-linecap="round"/>
</svg>
