<svg width="24" height="25" viewBox="0 0 24 25" fill="none" xmlns="http://www.w3.org/2000/svg">
<circle cx="12" cy="12.8677" r="8" fill="#CBD5DB"/>
<path d="M14.2747 10.4196H14.2253M15.7582 10.4196L16.5 10.7657L15.7582 11.1119M13.4341 12.4965C13.4341 13.3371 12.7912 13.98 11.9505 13.98C11.1099 13.98 8.83516 13.98 7.5 13.98M13.9286 8.93604C14.8681 8.93604 15.6593 9.72724 15.6593 10.7163C15.6593 11.2602 15.4121 11.8042 15.0165 12.1009C15.4121 12.5954 15.6593 13.2382 15.6593 13.9305C15.6593 15.513 14.4231 16.7987 12.8901 16.7987C11.3571 16.7987 9.97253 15.3646 8.73626 13.9305C9.67582 12.5954 12.5934 8.93604 13.9286 8.93604Z" stroke="white" stroke-miterlimit="10" stroke-linecap="round" stroke-linejoin="round"/>
</svg>
