<svg width="24" height="25" viewBox="0 0 24 25" fill="none" xmlns="http://www.w3.org/2000/svg">
<g clip-path="url(#clip0_413_9689)">
<circle cx="12" cy="12.8677" r="12" fill="#CBD5DB"/>
<path d="M15.033 9.60351H14.967M17.011 9.60351L18 10.065L17.011 10.5266M13.9121 12.3727C13.9121 13.4936 13.0549 14.3508 11.9341 14.3508C10.8132 14.3508 7.78022 14.3508 6 14.3508M14.5714 7.62549C15.8242 7.62549 16.8791 8.68043 16.8791 9.99911C16.8791 10.7244 16.5494 11.4497 16.022 11.8453C16.5494 12.5046 16.8791 13.3618 16.8791 14.2848C16.8791 16.3947 15.2308 18.109 13.1868 18.109C11.1429 18.109 9.2967 16.1969 7.64835 14.2848C8.9011 12.5046 12.7912 7.62549 14.5714 7.62549Z" stroke="white" stroke-width="1.5" stroke-miterlimit="10" stroke-linecap="round" stroke-linejoin="round"/>
</g>
<defs>
<clipPath id="clip0_413_9689">
<rect width="24" height="24" fill="white" transform="translate(0 0.867676)"/>
</clipPath>
</defs>
</svg>
