<svg width="24" height="25" viewBox="0 0 24 25" fill="none" xmlns="http://www.w3.org/2000/svg">
<path d="M5.92971 19.7322L5.92972 19.7322L5.95149 19.7267L5.95151 19.7267L8.58384 19.0686C8.59896 19.0649 8.61396 19.0611 8.62885 19.0574C8.85159 19.002 9.04877 18.9529 9.2278 18.8516C9.40683 18.7502 9.55035 18.6064 9.71248 18.4439C9.72332 18.433 9.73425 18.4221 9.74527 18.4111L16.9393 11.217L16.9393 11.217L16.9626 11.1937C17.2761 10.8803 17.5461 10.6103 17.7333 10.3649C17.9339 10.102 18.0858 9.8096 18.0858 9.44922C18.0858 9.08883 17.9339 8.79641 17.7333 8.53349C17.5461 8.28816 17.276 8.01812 16.9626 7.70472L16.9393 7.68145L16.5858 8.035L16.9393 7.68145L16.7678 7.50988L16.7445 7.4866C16.4311 7.17317 16.1611 6.9031 15.9157 6.71592C15.6528 6.51532 15.3604 6.36343 15 6.36343C14.6396 6.36343 14.3472 6.51532 14.0843 6.71592C13.8389 6.9031 13.5689 7.17317 13.2555 7.48661L13.2322 7.50988L6.03816 14.704C6.02714 14.715 6.01619 14.7259 6.00533 14.7367C5.84286 14.8989 5.69903 15.0424 5.59766 15.2214C5.4963 15.4005 5.44723 15.5976 5.39179 15.8204C5.38809 15.8353 5.38435 15.8503 5.38057 15.8654L4.71704 18.5195C4.71483 18.5284 4.7126 18.5373 4.71036 18.5462C4.67112 18.7029 4.62921 18.8702 4.61546 19.0108C4.60032 19.1655 4.60385 19.4265 4.81326 19.636C5.02267 19.8454 5.28373 19.8489 5.43846 19.8338C5.57899 19.82 5.74633 19.7781 5.90301 19.7389C5.91195 19.7366 5.92085 19.7344 5.92971 19.7322Z" stroke="#323232"/>
<path d="M12.5 7.94922L16.5 11.9492" stroke="#323232"/>
</svg>
