<svg width="25" height="25" viewBox="0 0 25 25" fill="none" xmlns="http://www.w3.org/2000/svg">
<path d="M6.28127 19.8645L6.28128 19.8645L6.30306 19.8591L6.30307 19.8591L8.9354 19.201C8.95052 19.1972 8.96552 19.1935 8.98041 19.1898C9.20315 19.1343 9.40033 19.0852 9.57936 18.9839C9.75839 18.8825 9.90192 18.7387 10.064 18.5762C10.0749 18.5654 10.0858 18.5544 10.0968 18.5434L17.2909 11.3493L17.2909 11.3493L17.3142 11.326C17.6276 11.0126 17.8977 10.7426 18.0849 10.4973C18.2855 10.2343 18.4373 9.94193 18.4373 9.58154C18.4373 9.22116 18.2855 8.92873 18.0849 8.66582C17.8977 8.42048 17.6276 8.15045 17.3142 7.83704L17.2909 7.81378L16.9373 8.16733L17.2909 7.81377L17.1193 7.6422L17.0961 7.61893C16.7827 7.30549 16.5126 7.03543 16.2673 6.84825C16.0044 6.64765 15.7119 6.49576 15.3516 6.49576C14.9912 6.49576 14.6988 6.64764 14.4358 6.84825C14.1905 7.03543 13.9205 7.30549 13.6071 7.61894L13.5838 7.6422L6.38972 14.8363C6.3787 14.8473 6.36775 14.8582 6.35689 14.8691C6.19442 15.0312 6.05059 15.1747 5.94923 15.3537C5.84786 15.5328 5.79879 15.7299 5.74336 15.9527C5.73965 15.9676 5.73591 15.9826 5.73213 15.9977L5.0686 18.6518C5.06639 18.6607 5.06416 18.6696 5.06192 18.6785C5.02268 18.8352 4.98077 19.0025 4.96702 19.1431C4.95189 19.2978 4.95541 19.5589 5.16482 19.7683C5.37423 19.9777 5.63529 19.9812 5.79002 19.9661C5.93055 19.9523 6.09789 19.9104 6.25457 19.8712C6.26351 19.8689 6.27241 19.8667 6.28127 19.8645Z" stroke="#323232"/>
<path d="M12.8516 8.08154L16.8516 12.0815" stroke="#323232"/>
</svg>
