<svg width="17" height="17" viewBox="0 0 17 17" fill="none" xmlns="http://www.w3.org/2000/svg">
<path d="M3.50076 13.3191L3.85432 12.9655L3.50076 13.3191C3.71017 13.5285 3.97123 13.532 4.12596 13.5169C4.2665 13.5031 4.43384 13.4612 4.59053 13.422C4.59946 13.4197 4.60836 13.4175 4.61722 13.4153L6.04057 13.0594C6.05569 13.0557 6.0707 13.0519 6.08559 13.0482C6.30832 12.9928 6.5055 12.9437 6.68453 12.8424C6.86356 12.741 7.00709 12.5972 7.16922 12.4347C7.18006 12.4238 7.19098 12.4129 7.202 12.4019L11.9949 7.60894L11.9949 7.60894L12.0026 7.60126L12.0026 7.60125L12.0132 7.59067C12.1585 7.44538 12.2838 7.32002 12.3811 7.20947C12.4834 7.09315 12.5776 6.96826 12.6445 6.81726C12.8162 6.4301 12.8162 5.9884 12.6445 5.60123C12.5776 5.45024 12.4834 5.32534 12.3811 5.20903C12.2839 5.09848 12.1585 4.97312 12.0132 4.82784L12.0026 4.81724L12.0026 4.81723L11.992 4.80665C11.8467 4.66135 11.7214 4.53598 11.6108 4.43872C11.4945 4.33639 11.3696 4.24224 11.2186 4.17529C10.8314 4.00362 10.3897 4.00362 10.0026 4.17529C9.85156 4.24224 9.72667 4.33639 9.61035 4.43872C9.4998 4.53598 9.37444 4.66135 9.22915 4.80664L9.21856 4.81723L4.41797 9.61783C4.40695 9.62885 4.396 9.63977 4.38514 9.65061C4.22267 9.81274 4.07884 9.95626 3.97747 10.1353C3.87611 10.3143 3.82703 10.5115 3.7716 10.7342C3.76789 10.7491 3.76416 10.7641 3.76038 10.7793L3.40454 12.2026C3.40233 12.2115 3.4001 12.2204 3.39786 12.2293C3.35862 12.386 3.31671 12.5533 3.30296 12.6939C3.28782 12.8486 3.29135 13.1096 3.50076 13.3191Z" stroke="#323232"/>
<path d="M8.68359 5.13232L11.3503 7.79899" stroke="#323232"/>
</svg>
