<svg width="16" height="16" viewBox="0 0 16 16" fill="none" xmlns="http://www.w3.org/2000/svg">
<path d="M3.1492 13.1867L3.50275 12.8332L3.1492 13.1867C3.35861 13.3961 3.61967 13.3997 3.7744 13.3845C3.91494 13.3708 4.08228 13.3289 4.23896 13.2896C4.2479 13.2874 4.2568 13.2852 4.26566 13.283L5.68901 12.9271C5.70413 12.9233 5.71914 12.9196 5.73403 12.9159C5.95676 12.8605 6.15394 12.8114 6.33297 12.71C6.512 12.6087 6.65552 12.4648 6.81765 12.3024C6.82849 12.2915 6.83941 12.2806 6.85044 12.2695L11.6433 7.47662L11.6434 7.47661L11.651 7.46894L11.651 7.46893L11.6616 7.45835C11.8069 7.31306 11.9323 7.18769 12.0295 7.07715C12.1319 6.96083 12.226 6.83593 12.293 6.68494C12.4646 6.29777 12.4646 5.85607 12.293 5.46891C12.226 5.31791 12.1319 5.19302 12.0295 5.0767C11.9323 4.96616 11.8069 4.84079 11.6616 4.69552L11.651 4.68492L11.651 4.68491L11.6404 4.67432C11.4952 4.52903 11.3698 4.40365 11.2592 4.3064C11.1429 4.20407 11.018 4.10992 10.867 4.04297C10.4799 3.8713 10.0382 3.8713 9.651 4.04297C9.5 4.10992 9.37511 4.20407 9.25879 4.3064C9.14824 4.40365 9.02288 4.52902 8.87759 4.67432L8.867 4.68491L4.06641 9.4855C4.05538 9.49652 4.04444 9.50745 4.03357 9.51829C3.8711 9.68042 3.72727 9.82394 3.62591 10.003C3.52454 10.182 3.47547 10.3792 3.42004 10.6019C3.41633 10.6168 3.4126 10.6318 3.40882 10.6469L3.05298 12.0703C3.05076 12.0791 3.04854 12.088 3.0463 12.097C3.00706 12.2537 2.96514 12.421 2.9514 12.5615C2.93626 12.7163 2.93979 12.9773 3.1492 13.1867Z" stroke="#323232"/>
<path d="M8.33203 5L10.9987 7.66667" stroke="#323232"/>
</svg>
