<svg width="25" height="25" viewBox="0 0 25 25" fill="none" xmlns="http://www.w3.org/2000/svg">
<path d="M17.2929 7.36456L16.9393 7.71811L17.2929 7.36456L17.1213 7.19298L17.098 7.16971C16.7846 6.85627 16.5146 6.58621 16.2692 6.39903C16.0063 6.19843 15.7139 6.04654 15.3535 6.04654C14.9931 6.04654 14.7007 6.19843 14.4378 6.39903C14.1925 6.58621 13.9224 6.85628 13.609 7.16972L13.5858 7.19298L6.39168 14.3871C6.38065 14.3981 6.36971 14.409 6.35884 14.4198C6.19637 14.582 6.05255 14.7255 5.95118 14.9045C5.84981 15.0836 5.80074 15.2807 5.74531 15.5035C5.7416 15.5184 5.73787 15.5334 5.73409 15.5485L5.07056 18.2026C5.06834 18.2115 5.06611 18.2204 5.06387 18.2293C5.02463 18.386 4.98272 18.5533 4.96898 18.6939C4.95384 18.8486 4.95737 19.1097 5.16678 19.3191C5.37619 19.5285 5.63724 19.532 5.79197 19.5169C5.93251 19.5031 6.09984 19.4612 6.25652 19.422C6.26546 19.4197 6.27436 19.4175 6.28323 19.4153L6.28324 19.4153L6.30501 19.4098L6.30502 19.4098L8.93736 18.7518C8.95247 18.748 8.96748 18.7442 8.98237 18.7405C9.2051 18.6851 9.40228 18.636 9.58131 18.5347C9.76034 18.4333 9.90387 18.2895 10.066 18.127C10.0768 18.1161 10.0878 18.1052 10.0988 18.0942L17.2929 10.9001L17.2929 10.9001L17.3161 10.8768C17.6296 10.5634 17.8996 10.2934 18.0868 10.048C18.2874 9.78513 18.4393 9.49271 18.4393 9.13232C18.4393 8.77194 18.2874 8.47952 18.0868 8.2166C17.8996 7.97126 17.6296 7.70123 17.3161 7.38782L17.2929 7.36456Z" stroke="#414141"/>
<path d="M12.8535 7.63232L16.8535 11.6323" stroke="#414141"/>
</svg>
