<svg width="24" height="25" viewBox="0 0 24 25" fill="none" xmlns="http://www.w3.org/2000/svg">
<path d="M12.0008 20.8677C11.5023 20.8677 10.9964 20.7412 10.5499 20.4808L6.13051 17.9288C5.2377 17.408 4.67969 16.4482 4.67969 15.4141V10.325C4.67969 9.29083 5.2377 8.33106 6.13051 7.81025L10.5499 5.25828C11.4428 4.73747 12.5513 4.73747 13.4516 5.25828L17.871 7.81025C18.7639 8.33106 19.3219 9.29083 19.3219 10.325V15.4141C19.3219 16.4482 18.7639 17.408 17.871 17.9288L13.4516 20.4808C13.0052 20.7412 12.4993 20.8677 12.0008 20.8677Z" fill="#FB4E4E"/>
<circle cx="12" cy="15.7363" r="0.5" fill="white"/>
<line x1="12" y1="9.99902" x2="12" y2="13.999" stroke="white" stroke-linecap="round"/>
</svg>
