<svg width="24" height="25" viewBox="0 0 24 25" fill="none" xmlns="http://www.w3.org/2000/svg">
<g clip-path="url(#clip0_1601_29260)">
<path d="M11.9973 24.8677C11.2495 24.8677 10.4906 24.678 9.82102 24.2873L3.19186 20.4594C1.85264 19.6782 1.01562 18.2385 1.01562 16.6873V9.05368C1.01562 7.50241 1.85264 6.06275 3.19186 5.28153L9.82102 1.45359C11.1602 0.672372 12.8231 0.672372 14.1735 1.45359L20.8027 5.28153C22.1419 6.06275 22.9789 7.50241 22.9789 9.05368V16.6873C22.9789 18.2385 22.1419 19.6782 20.8027 20.4594L14.1735 24.2873C13.5039 24.678 12.745 24.8677 11.9973 24.8677Z" fill="#FB4E4E"/>
<circle cx="12" cy="17.6177" r="0.75" fill="white"/>
<line x1="12" y1="8.11768" x2="12" y2="14.6177" stroke="white" stroke-width="1.5" stroke-linecap="round"/>
</g>
<defs>
<clipPath id="clip0_1601_29260">
<rect width="24" height="24" fill="white" transform="translate(0 0.867676)"/>
</clipPath>
</defs>
</svg>
