<svg width="25" height="25" viewBox="0 0 25 25" fill="none" xmlns="http://www.w3.org/2000/svg">
<path d="M3.85352 11.1323C3.85352 7.36109 3.85352 5.47547 5.02509 4.3039C6.19666 3.13232 8.08228 3.13232 11.8535 3.13232H13.8535C17.6248 3.13232 19.5104 3.13232 20.6819 4.3039C21.8535 5.47547 21.8535 7.36109 21.8535 11.1323V13.1323C21.8535 16.9036 21.8535 18.7892 20.6819 19.9608C19.5104 21.1323 17.6248 21.1323 13.8535 21.1323H11.8535C8.08228 21.1323 6.19666 21.1323 5.02509 19.9608C3.85352 18.7892 3.85352 16.9036 3.85352 13.1323V11.1323Z" stroke="#FB4E4E"/>
<path fill-rule="evenodd" clip-rule="evenodd" d="M8.9369 12.3815C9.60384 11.4797 11.012 11.7141 11.3509 12.7833L11.5708 13.4771C12.0647 15.0355 14.1172 15.3771 15.0894 14.0627C15.49 13.5209 16.3004 13.5209 16.7011 14.0627L18.4515 16.4295C18.6157 16.6515 18.9288 16.6984 19.1509 16.5342C19.3729 16.37 19.4197 16.0569 19.2555 15.8349L17.5051 13.4681C16.7047 12.3858 15.0858 12.3858 14.2854 13.4681C13.7987 14.126 12.7713 13.955 12.524 13.1749L12.3041 12.4811C11.7185 10.6336 9.28534 10.2286 8.13289 11.7869L6.24842 14.3349C6.08422 14.5569 6.13109 14.87 6.35311 15.0342C6.57513 15.1984 6.88822 15.1515 7.05242 14.9295L8.9369 12.3815Z" fill="#FB4E4E"/>
<circle cx="17.3535" cy="7.63232" r="1.5" fill="#FB4E4E"/>
</svg>
