<svg width="24" height="24" viewBox="0 0 24 24" fill="none" xmlns="http://www.w3.org/2000/svg">
<circle cx="12" cy="8" r="2.5" stroke="#323232" stroke-linecap="round"/>
<circle cx="6.5" cy="8.5" r="2" stroke="#323232" stroke-linecap="round"/>
<circle cx="17.5" cy="8.5" r="2" stroke="#323232" stroke-linecap="round"/>
<path d="M12 12.5C16.0802 12.5 17.1335 15.8022 17.4054 17.507C17.4924 18.0524 17.0523 18.5 16.5 18.5H7.5C6.94771 18.5 6.50763 18.0524 6.59461 17.507C6.86649 15.8022 7.91976 12.5 12 12.5Z" stroke="#323232" stroke-linecap="round"/>
<path d="M21.2962 15.4162L20.8112 15.5377L21.2962 15.4162ZM14.6719 13.1176L14.2567 12.839L13.9504 13.2955L14.4337 13.5572L14.6719 13.1176ZM17.181 16.5L16.7007 16.639L16.8051 17H17.181V16.5ZM17.4997 12C18.5274 12 19.2492 12.5027 19.778 13.2069C20.3174 13.9253 20.6341 14.8306 20.8112 15.5377L21.7812 15.2948C21.5901 14.5315 21.2325 13.4787 20.5777 12.6065C19.9122 11.7203 18.9199 11 17.4997 11V12ZM15.0871 13.3962C15.6268 12.5917 16.3862 12 17.4997 12V11C15.9528 11 14.9185 11.8526 14.2567 12.839L15.0871 13.3962ZM14.4337 13.5572C15.7283 14.2585 16.3775 15.5218 16.7007 16.639L17.6613 16.361C17.3023 15.1203 16.5392 13.5604 14.91 12.6779L14.4337 13.5572ZM20.3947 16H17.181V17H20.3947V16ZM20.8112 15.5377C20.865 15.7526 20.7072 16 20.3947 16V17C21.2654 17 22.0149 16.2277 21.7812 15.2948L20.8112 15.5377Z" fill="#323232"/>
<path d="M2.69599 15.4162L3.18101 15.5377L2.69599 15.4162ZM9.32031 13.1176L9.73552 12.839L10.0418 13.2955L9.55845 13.5572L9.32031 13.1176ZM6.81122 16.5L7.29152 16.639L7.18707 17H6.81122V16.5ZM6.49252 12C5.4648 12 4.74301 12.5027 4.21421 13.2069C3.67483 13.9253 3.35809 14.8306 3.18101 15.5377L2.21096 15.2948C2.4021 14.5315 2.75968 13.4787 3.41453 12.6065C4.07996 11.7203 5.07234 11 6.49252 11V12ZM8.90511 13.3962C8.36534 12.5917 7.60602 12 6.49252 12V11C8.03934 11 9.07372 11.8526 9.73552 12.839L8.90511 13.3962ZM9.55845 13.5572C8.26388 14.2585 7.61472 15.5218 7.29152 16.639L6.33091 16.361C6.68988 15.1203 7.45298 13.5604 9.08217 12.6779L9.55845 13.5572ZM3.59753 16H6.81122V17H3.59753V16ZM3.18101 15.5377C3.1272 15.7526 3.28503 16 3.59753 16V17C2.7268 17 1.97734 16.2277 2.21096 15.2948L3.18101 15.5377Z" fill="#323232"/>
</svg>
