<svg width="24" height="24" viewBox="0 0 25 25" fill="none" xmlns="http://www.w3.org/2000/svg">
<path d="M5.35352 12.3655C5.35352 11.0077 5.35352 10.3289 5.62798 9.73213C5.90244 9.13539 6.41788 8.69358 7.44877 7.80997L8.44877 6.95282C10.3121 5.35569 11.2437 4.55713 12.3535 4.55713C13.4633 4.55713 14.3949 5.35569 16.2583 6.95282L17.2583 7.80997C18.2892 8.69358 18.8046 9.13539 19.0791 9.73213C19.3535 10.3289 19.3535 11.0077 19.3535 12.3655V16.6059C19.3535 18.4915 19.3535 19.4343 18.7677 20.0201C18.1819 20.6059 17.2391 20.6059 15.3535 20.6059H9.35352C7.4679 20.6059 6.52509 20.6059 5.9393 20.0201C5.35352 19.4343 5.35352 18.4915 5.35352 16.6059V12.3655Z" stroke="#323232"/>
<path d="M14.8535 20.606V15.606C14.8535 15.0537 14.4058 14.606 13.8535 14.606H10.8535C10.3012 14.606 9.85352 15.0537 9.85352 15.606V20.606" stroke="#323232" stroke-linecap="round" stroke-linejoin="round"/>
</svg>
