<svg width="24" height="24" viewBox="0 0 24 24" fill="none" xmlns="http://www.w3.org/2000/svg">
<path d="M3 11C3 7.22876 3 5.34315 4.17157 4.17157C5.34315 3 7.22876 3 11 3H13C16.7712 3 18.6569 3 19.8284 4.17157C21 5.34315 21 7.22876 21 11V13C21 16.7712 21 18.6569 19.8284 19.8284C18.6569 21 16.7712 21 13 21H11C7.22876 21 5.34315 21 4.17157 19.8284C3 18.6569 3 16.7712 3 13V11Z" stroke="#323232"/>
<path fill-rule="evenodd" clip-rule="evenodd" d="M8.08338 12.2493C8.75032 11.3475 10.1585 11.5819 10.4974 12.6511L10.7173 13.3449C11.2112 14.9033 13.2637 15.2449 14.2358 13.9305C14.6365 13.3887 15.4469 13.3887 15.8476 13.9305L17.598 16.2973C17.7622 16.5193 18.0753 16.5662 18.2973 16.402C18.5194 16.2378 18.5662 15.9247 18.402 15.7027L16.6516 13.3359C15.8511 12.2536 14.2322 12.2536 13.4318 13.3359C12.9452 13.9938 11.9178 13.8228 11.6705 13.0427L11.4506 12.3489C10.865 10.5014 8.43183 10.0964 7.27938 11.6547L5.39491 14.2027C5.2307 14.4247 5.27757 14.7378 5.49959 14.902C5.72161 15.0662 6.03471 15.0193 6.19891 14.7973L8.08338 12.2493Z" fill="#323232"/>
<circle cx="16.5" cy="7.5" r="1.5" fill="#323232"/>
</svg>
