<svg width="24" height="25" viewBox="0 0 24 25" fill="none" xmlns="http://www.w3.org/2000/svg">
<path fill-rule="evenodd" clip-rule="evenodd" d="M12.0001 7.76245C9.164 7.76245 6.86493 10.0615 6.86493 12.8976C6.86493 15.7337 9.164 18.0327 12.0001 18.0327C14.8361 18.0327 17.1352 15.7337 17.1352 12.8976C17.1352 10.0615 14.8361 7.76245 12.0001 7.76245ZM12.0001 16.2309C10.1591 16.2309 8.66673 14.7385 8.66673 12.8976C8.66673 11.0566 10.1591 9.56425 12.0001 9.56425C13.841 9.56425 15.3334 11.0566 15.3334 12.8976C15.3334 14.7385 13.841 16.2309 12.0001 16.2309Z" fill="#ADACAC"/>
<path d="M17.338 8.75956C18.0008 8.75956 18.538 8.22233 18.538 7.55955C18.538 6.89682 18.0008 6.35959 17.338 6.35959C16.6753 6.35959 16.138 6.89682 16.138 7.55955C16.138 8.22233 16.6753 8.75956 17.338 8.75956Z" fill="#ADACAC"/>
<path fill-rule="evenodd" clip-rule="evenodd" d="M12 2.89758C9.28417 2.89758 8.94362 2.90911 7.87702 2.95778C6.81264 3.00633 6.08568 3.17536 5.44958 3.42259C4.792 3.67813 4.23431 4.02009 3.6784 4.57603C3.12247 5.13193 2.78051 5.68963 2.52496 6.34721C2.27774 6.98326 2.10871 7.71022 2.06016 8.7746C2.01148 9.8412 2 10.1818 2 12.8976C2 15.6134 2.01148 15.954 2.06016 17.0206C2.10871 18.0849 2.27774 18.8119 2.52496 19.448C2.78051 20.1055 3.12247 20.6632 3.6784 21.2192C4.23431 21.7751 4.792 22.1171 5.44958 22.3726C6.08568 22.6198 6.81264 22.7889 7.87702 22.8374C8.94362 22.8861 9.28417 22.8976 12 22.8976C14.7158 22.8976 15.0564 22.8861 16.123 22.8374C17.1874 22.7889 17.9143 22.6198 18.5504 22.3726C19.208 22.1171 19.7657 21.7751 20.3216 21.2192C20.8775 20.6632 21.2195 20.1055 21.475 19.448C21.7222 18.8119 21.8913 18.0849 21.9398 17.0206C21.9885 15.954 22 15.6134 22 12.8976C22 10.1818 21.9885 9.8412 21.9398 8.7746C21.8913 7.71022 21.7222 6.98326 21.475 6.34721C21.2195 5.68963 20.8775 5.13193 20.3216 4.57603C19.7657 4.02009 19.208 3.67813 18.5504 3.42259C17.9143 3.17536 17.1874 3.00633 16.123 2.95778C15.0564 2.90911 14.7158 2.89758 12 2.89758ZM12 4.69943C14.6701 4.69943 14.9864 4.70958 16.0409 4.75771C17.0158 4.8022 17.5453 4.96509 17.8977 5.10201C18.3645 5.28341 18.6976 5.50013 19.0475 5.85006C19.3975 6.19998 19.6142 6.53314 19.7956 6.99986C19.9325 7.35225 20.0954 7.88174 20.1399 8.85671C20.188 9.9112 20.1982 10.2275 20.1982 12.8976C20.1982 15.5677 20.188 15.884 20.1399 16.9385C20.0954 17.9134 19.9325 18.4429 19.7956 18.7953C19.6142 19.2621 19.3975 19.5952 19.0475 19.9451C18.6976 20.2951 18.3645 20.5118 17.8977 20.6932C17.5453 20.8301 17.0158 20.993 16.0409 21.0375C14.9866 21.0856 14.6703 21.0958 12 21.0958C9.32968 21.0958 9.0135 21.0856 7.95912 21.0375C6.98416 20.993 6.45467 20.8301 6.10228 20.6932C5.63552 20.5118 5.3024 20.2951 4.95243 19.9451C4.60251 19.5952 4.38579 19.2621 4.20442 18.7953C4.06747 18.4429 3.90458 17.9134 3.86009 16.9385C3.81196 15.884 3.8018 15.5677 3.8018 12.8976C3.8018 10.2275 3.81196 9.9112 3.86009 8.85671C3.90458 7.88174 4.06747 7.35225 4.20442 6.99986C4.38579 6.53314 4.60251 6.19998 4.95243 5.85006C5.3024 5.50013 5.63552 5.28341 6.10228 5.10201C6.45467 4.96509 6.98416 4.8022 7.95912 4.75771C9.01362 4.70958 9.32991 4.69943 12 4.69943Z" fill="#ADACAC"/>
</svg>
