<svg width="17" height="17" viewBox="0 0 17 17" fill="none" xmlns="http://www.w3.org/2000/svg">
<path d="M4.55469 14.1323C3.61188 14.1323 3.14047 14.1323 2.84758 13.7418C2.55469 13.3513 2.55469 12.7227 2.55469 11.4657V4.79899C2.55469 3.54191 2.55469 2.91337 2.84758 2.52285C3.14047 2.13232 3.61188 2.13232 4.55469 2.13232M9.55469 2.13232C10.4975 2.13232 10.9689 2.13232 11.2618 2.52285C11.5547 2.91337 11.5547 3.54191 11.5547 4.79899" stroke="#323232" stroke-linecap="round" stroke-linejoin="round"/>
<rect x="6.14844" y="6.19141" width="8" height="9" rx="2" stroke="#323232"/>
<path d="M8.14844 8.19141L11.1484 8.19141" stroke="#323232" stroke-linecap="round"/>
<path d="M8.14844 13.5247L10.1484 13.5247" stroke="#323232" stroke-linecap="round"/>
<path d="M8.14844 10.8581L12.1484 10.8581" stroke="#323232" stroke-linecap="round"/>
<rect x="4.55469" y="0.79895" width="5" height="3" rx="1.5" stroke="#323232"/>
</svg>
