<svg width="24" height="25" viewBox="0 0 24 25" fill="none" xmlns="http://www.w3.org/2000/svg">
<path d="M6.4158 21.4492C4.94921 21.4492 4.21591 21.4492 3.7603 20.8634C3.30469 20.2776 3.30469 19.3348 3.30469 17.4492V7.44922C3.30469 5.5636 3.30469 4.62079 3.7603 4.03501C4.21591 3.44922 4.94921 3.44922 6.4158 3.44922M14.1936 3.44922C15.6602 3.44922 16.3935 3.44922 16.8491 4.03501C17.3047 4.62079 17.3047 5.5636 17.3047 7.44922" stroke="#323232"/>
<rect x="8.69531" y="9.53784" width="12" height="14" rx="3" stroke="#323232"/>
<path d="M11.6953 12.5378L15.6953 12.5378" stroke="#323232" stroke-linecap="round"/>
<path d="M11.6953 20.5378L14.6953 20.5378" stroke="#323232" stroke-linecap="round"/>
<path d="M11.6953 16.5378L17.6953 16.5378" stroke="#323232" stroke-linecap="round"/>
<rect x="6.30469" y="1.44922" width="8" height="4" rx="2" stroke="#323232"/>
</svg>
