<svg width="17" height="17" viewBox="0 0 17 17" fill="none" xmlns="http://www.w3.org/2000/svg">
<path d="M9.04983 3.54182C9.70288 3.10644 10.0294 2.88876 10.3852 2.92399C10.741 2.95921 11.0184 3.23671 11.5734 3.7917L12.6922 4.91045C13.2472 5.46544 13.5247 5.74293 13.5599 6.0987C13.5951 6.45448 13.3774 6.781 12.9421 7.43406L12.0928 8.70791C11.9799 8.8773 11.9234 8.96199 11.8696 9.04735C11.3845 9.81638 11.034 10.6625 10.8333 11.5493C10.811 11.6477 10.791 11.7475 10.7511 11.9472L10.6198 12.6037C10.5226 13.0899 9.95922 13.3174 9.55159 13.0352V13.0352C7.16695 11.3843 5.09956 9.31694 3.44866 6.9323V6.9323C3.16645 6.52466 3.39402 5.96133 3.88019 5.8641L4.53672 5.73279C4.73635 5.69287 4.83616 5.67291 4.93459 5.65062C5.82141 5.44987 6.66751 5.0994 7.43653 4.61428C7.52189 4.56044 7.60659 4.50398 7.77597 4.39105L9.04983 3.54182Z" stroke="#323232"/>
<path d="M3.10907 13.2116L5.9375 10.3832" stroke="#323232" stroke-linecap="round"/>
</svg>
