<svg width="24" height="25" viewBox="0 0 24 25" fill="none" xmlns="http://www.w3.org/2000/svg">
<path d="M14.6358 4.35871C15.2888 3.92334 15.6153 3.70565 15.9711 3.74088C16.3269 3.77611 16.6044 4.05361 17.1594 4.6086L19.8406 7.28984C20.3956 7.84483 20.6731 8.12233 20.7083 8.4781C20.7436 8.83387 20.5259 9.1604 20.0905 9.81345L18.4419 12.2864C17.88 13.1292 17.5991 13.5506 17.3749 14.0003C17.2086 14.3337 17.0659 14.6784 16.9476 15.0317C16.7882 15.5083 16.6889 16.0049 16.4902 16.9981L16.2992 17.953C16.2986 17.9564 16.2982 17.9581 16.298 17.9593C16.1556 18.6622 15.3414 18.9911 14.7508 18.5844C14.7497 18.5836 14.7483 18.5827 14.7455 18.5807V18.5807C14.7322 18.5715 14.7255 18.5669 14.7189 18.5623C11.2692 16.1717 8.27754 13.18 5.88691 9.7303C5.88233 9.72369 5.87772 9.71704 5.86851 9.70373V9.70373C5.86655 9.70091 5.86558 9.6995 5.86486 9.69846C5.45815 9.1078 5.78704 8.29366 6.4899 8.15124C6.49113 8.15099 6.49282 8.15066 6.49618 8.14998L7.45114 7.95899C8.44433 7.76035 8.94092 7.66103 9.4175 7.50158C9.77083 7.38337 10.1155 7.24061 10.4489 7.07436C10.8987 6.85011 11.32 6.5692 12.1628 6.00737L14.6358 4.35871Z" stroke="#323232"/>
<path d="M5 19.4492L9.5 14.9492" stroke="#323232" stroke-linecap="round"/>
</svg>
