<svg width="25" height="25" viewBox="0 0 25 25" fill="none" xmlns="http://www.w3.org/2000/svg">
<path d="M14.9893 4.04181C15.6423 3.60644 15.9689 3.38876 16.3246 3.42399C16.6804 3.45921 16.9579 3.73671 17.5129 4.2917L20.1941 6.97295C20.7491 7.52794 21.0266 7.80543 21.0619 8.1612C21.0971 8.51698 20.8794 8.8435 20.444 9.49656L18.7954 11.9695C18.2335 12.8123 17.9526 13.2337 17.7284 13.6834C17.5621 14.0168 17.4194 14.3615 17.3012 14.7148C17.1417 15.1914 17.0424 15.688 16.8437 16.6812L16.6528 17.6361C16.6521 17.6395 16.6517 17.6412 16.6515 17.6424C16.5091 18.3453 15.6949 18.6742 15.1043 18.2675C15.1032 18.2667 15.1018 18.2658 15.099 18.2638V18.2638C15.0857 18.2546 15.079 18.25 15.0724 18.2454C11.6227 15.8548 8.63105 12.8632 6.24042 9.4134C6.23584 9.4068 6.23124 9.40014 6.22202 9.38684V9.38684C6.22007 9.38401 6.21909 9.3826 6.21838 9.38156C5.81166 8.7909 6.14055 7.97677 6.84341 7.83435C6.84465 7.8341 6.84633 7.83376 6.8497 7.83309L7.80466 7.6421C8.79784 7.44346 9.29444 7.34414 9.77102 7.18469C10.1244 7.06647 10.469 6.92372 10.8024 6.75746C11.2522 6.53322 11.6735 6.2523 12.5163 5.69047L14.9893 4.04181Z" stroke="#414141"/>
<path d="M5.35352 19.1323L9.85352 14.6323" stroke="#414141" stroke-linecap="round"/>
</svg>
