<svg width="16" height="16" viewBox="0 0 16 16" fill="none" xmlns="http://www.w3.org/2000/svg">
<path d="M8.69826 3.40949C9.35132 2.97412 9.67785 2.75643 10.0336 2.79166C10.3894 2.82689 10.6669 3.10439 11.2219 3.65938L12.3406 4.77812C12.8956 5.33311 13.1731 5.61061 13.2083 5.96638C13.2436 6.32215 13.0259 6.64868 12.5905 7.30174L11.7413 8.57559C11.6283 8.74498 11.5719 8.82967 11.518 8.91503C11.0329 9.68406 10.6825 10.5302 10.4817 11.417C10.4594 11.5154 10.4395 11.6152 10.3995 11.8148L10.2682 12.4714C10.171 12.9575 9.60766 13.1851 9.20002 12.9029V12.9029C6.81539 11.252 4.748 9.18461 3.0971 6.79998V6.79998C2.81489 6.39234 3.04246 5.82901 3.52863 5.73177L4.18516 5.60047C4.38478 5.56054 4.4846 5.54058 4.58303 5.5183C5.46984 5.31754 6.31594 4.96708 7.08497 4.48196C7.17033 4.42811 7.25502 4.37165 7.42441 4.25873L8.69826 3.40949Z" stroke="#323232"/>
<path d="M2.75751 13.0794L5.58594 10.251" stroke="#323232" stroke-linecap="round"/>
</svg>
