<svg width="24" height="24" viewBox="0 0 24 24" fill="none" xmlns="http://www.w3.org/2000/svg">
<path d="M14.1361 3.36136H14.6361V3.33642L14.6337 3.3116L14.1361 3.36136ZM14.1361 3.36137H13.6361V3.38631L13.6386 3.41112L14.1361 3.36137ZM14.4309 4.81738L14.8285 4.51421L14.8285 4.51421L14.4309 4.81738ZM15.3596 5.20208L15.2929 4.70656L15.3596 5.20208ZM16.5975 4.38101L16.3202 3.96498L16.2998 3.97855L16.2809 3.99403L16.5975 4.38101ZM16.5975 4.381L16.8749 4.79703L16.8952 4.78347L16.9142 4.76798L16.5975 4.381ZM17.2847 3.90923L17.4369 4.38549L17.4369 4.38549L17.2847 3.90923ZM17.9869 3.94425L17.788 4.403L17.788 4.403L17.9869 3.94425ZM18.6237 4.48206L18.9772 4.12851V4.12851L18.6237 4.48206ZM19.5173 5.37568L19.8708 5.02213L19.5173 5.37568ZM20.0553 6.01274L20.5141 5.81394L20.0553 6.01274ZM20.0903 6.71466L20.5666 6.86682V6.86682L20.0903 6.71466ZM19.6184 7.40207L19.9921 7.73426L19.9989 7.72661L20.0053 7.71869L19.6184 7.40207ZM19.6184 7.40209L19.2446 7.06991L19.2379 7.07755L19.2314 7.08547L19.6184 7.40209ZM18.797 8.64049L18.3015 8.57382V8.57382L18.797 8.64049ZM19.1816 9.56889L18.8783 9.96643L18.8783 9.96643L19.1816 9.56889ZM20.6383 9.86383L20.5885 10.3613L20.6383 9.86383ZM21.4585 10.0163L21.6878 9.57195L21.6878 9.57195L21.4585 10.0163ZM21.9299 10.5372L22.3949 10.3533L22.3949 10.3533L21.9299 10.5372ZM21.9301 13.4624L22.3951 13.6461V13.6461L21.9301 13.4624ZM21.4581 13.9839L21.6871 14.4284H21.6872L21.4581 13.9839ZM20.639 14.1361L20.6887 14.6336L20.639 14.1361ZM19.1837 14.4307L19.4867 14.8283L19.4867 14.8283L19.1837 14.4307ZM18.7988 15.3598L19.2943 15.2929V15.2929L18.7988 15.3598ZM19.6198 16.5974L19.2328 16.914L19.6198 16.5974ZM20.0918 17.2848L19.6155 17.437L20.0918 17.2848ZM20.0568 17.9869L20.5155 18.1857L20.0568 17.9869ZM17.988 20.0555L17.7893 19.5966H17.7893L17.988 20.0555ZM17.2866 20.0905L17.1346 20.5668L17.2866 20.0905ZM16.5986 19.6182L16.9152 19.2312L16.5986 19.6182ZM15.3591 18.7963L15.4256 18.3007L15.3591 18.7963ZM14.4315 19.1805L14.8288 19.484L14.4315 19.1805ZM14.1362 20.6382L13.6387 20.5884L14.1362 20.6382ZM13.9836 21.4587L13.5393 21.2293H13.5393L13.9836 21.4587ZM13.463 21.9298L13.647 22.3948L13.647 22.3948L13.463 21.9298ZM10.5372 21.9299L10.7211 21.465L10.7211 21.465L10.5372 21.9299ZM10.0163 21.4585L10.4606 21.2292L10.4606 21.2292L10.0163 21.4585ZM9.86384 20.6384L10.3614 20.5887L9.86384 20.6384ZM9.56879 19.1815L9.96628 18.8782H9.96628L9.56879 19.1815ZM8.64068 18.7971L8.5741 18.3015L8.64068 18.7971ZM7.40177 19.6187L7.71839 20.0057L7.40177 19.6187ZM6.71395 20.0909L6.86602 20.5672H6.86602L6.71395 20.0909ZM6.01237 20.0559L6.21109 19.5971H6.21109L6.01237 20.0559ZM5.37498 19.5177L5.72854 19.1641H5.72854L5.37498 19.5177ZM4.48169 18.6244L4.1054 18.9536L4.11637 18.9661L4.12814 18.9779L4.48169 18.6244ZM4.48168 18.6244L4.85797 18.2951L4.84701 18.2826L4.83524 18.2708L4.48168 18.6244ZM3.94364 17.9872L3.48486 18.186L3.48486 18.186L3.94364 17.9872ZM3.90864 17.2854L3.43235 17.1332L3.43235 17.1332L3.90864 17.2854ZM4.3807 16.5978L4.76768 16.9144L4.3807 16.5978ZM5.202 15.3596L5.69752 15.4263V15.4263L5.202 15.3596ZM4.81733 14.4309L4.51414 14.8285L4.51414 14.8285L4.81733 14.4309ZM3.36128 14.1361L3.41104 13.6386L3.38622 13.6361H3.36128V14.1361ZM3.36128 14.1361L3.31152 14.6336L3.33634 14.6361H3.36128V14.1361ZM2.54172 13.9838L2.31258 14.4282L2.31258 14.4282L2.54172 13.9838ZM2.07 13.4626L1.605 13.6464H1.605L2.07 13.4626ZM2.07017 10.537L2.53509 10.721H2.53509L2.07017 10.537ZM2.54131 10.0164L2.77065 10.4607L2.77066 10.4607L2.54131 10.0164ZM3.36203 9.8638L3.41178 10.3613L3.36203 9.8638ZM4.81934 9.5687L4.51601 9.17122L4.51601 9.17122L4.81934 9.5687ZM5.20377 8.6406L5.69932 8.57403V8.57403L5.20377 8.6406ZM4.38221 7.40176L3.98221 7.70176L3.98854 7.71021L3.99523 7.71838L4.38221 7.40176ZM4.3822 7.40176L4.7822 7.10176L4.76088 7.07333L4.73576 7.0482L4.3822 7.40176ZM4.3822 7.40175L3.99522 7.71837L4.01101 7.73767L4.02865 7.75531L4.3822 7.40175ZM3.91012 6.71408L4.38643 6.56198L4.38643 6.56198L3.91012 6.71408ZM3.94512 6.0124L3.48631 5.81366L3.48631 5.81366L3.94512 6.0124ZM5.3769 4.4815L5.73045 4.83505H5.73045L5.3769 4.4815ZM6.01346 3.94385L6.21239 4.40258L6.21239 4.40258L6.01346 3.94385ZM6.7159 3.90882L6.56361 4.38506L6.56361 4.38506L6.7159 3.90882ZM7.40281 4.38046L7.73206 4.00417L7.72583 3.99872L7.71942 3.99348L7.40281 4.38046ZM7.40281 4.38047L7.07356 4.75676L7.07979 4.76221L7.08619 4.76745L7.40281 4.38047ZM8.64023 5.20129L8.70711 4.70578H8.70711L8.64023 5.20129ZM9.56932 4.81645L9.96698 5.11954L9.56932 4.81645ZM9.86389 3.36106L9.36637 3.31131V3.31131L9.86389 3.36106ZM10.0161 2.54188L10.4605 2.77094V2.77094L10.0161 2.54188ZM10.5376 2.06994L10.7213 2.53497L10.7213 2.53497L10.5376 2.06994ZM13.4626 2.07001L13.2788 2.53501V2.53501L13.4626 2.07001ZM13.9838 2.5417L14.4282 2.31255L14.4282 2.31255L13.9838 2.5417ZM14.6361 3.36136V3.36136H13.6361V3.36136H14.6361ZM14.6361 3.36137V3.36136H13.6361V3.36137H14.6361ZM14.8285 4.51421C14.8172 4.49938 14.7805 4.43828 14.742 4.22413C14.7043 4.01476 14.6755 3.7303 14.6337 3.31162L13.6386 3.41112C13.6788 3.81303 13.7115 4.144 13.7578 4.40121C13.8032 4.65363 13.8729 4.91024 14.0333 5.12055L14.8285 4.51421ZM15.2929 4.70656C15.1148 4.73056 14.9375 4.65712 14.8285 4.51421L14.0333 5.12054C14.3602 5.5493 14.8921 5.76961 15.4264 5.6976L15.2929 4.70656ZM16.2809 3.99403C15.9553 4.26046 15.7338 4.44121 15.5591 4.56261C15.3805 4.68678 15.3113 4.70407 15.2929 4.70656L15.4264 5.6976C15.6885 5.66228 15.9192 5.53012 16.1298 5.38375C16.3444 5.23461 16.6016 5.02374 16.9142 4.76799L16.2809 3.99403ZM16.3202 3.96498L16.3202 3.96498L16.8749 4.79703L16.8749 4.79703L16.3202 3.96498ZM17.1324 3.43297C16.9726 3.48407 16.8371 3.56517 16.7094 3.6562C16.5857 3.74434 16.4444 3.8603 16.2809 3.99403L16.9142 4.76798C17.0879 4.62585 17.1994 4.53491 17.2897 4.47062C17.3758 4.40922 17.4154 4.39237 17.4369 4.38549L17.1324 3.43297ZM18.1857 3.4855C17.8526 3.34108 17.4783 3.32241 17.1324 3.43297L17.4369 4.38549C17.5522 4.34864 17.677 4.35486 17.788 4.403L18.1857 3.4855ZM18.9772 4.12851C18.8279 3.97918 18.6988 3.84974 18.5845 3.74972C18.4664 3.64643 18.3397 3.55226 18.1857 3.4855L17.788 4.403C17.8087 4.41198 17.8464 4.43269 17.9261 4.50236C18.0094 4.57531 18.1114 4.6769 18.2701 4.83562L18.9772 4.12851ZM19.8708 5.02213L18.9772 4.12851L18.2701 4.83562L19.1637 5.72923L19.8708 5.02213ZM20.5141 5.81394C20.4473 5.65986 20.3531 5.53313 20.2498 5.41501C20.1497 5.30065 20.0202 5.17152 19.8708 5.02213L19.1637 5.72923C19.3225 5.88801 19.4241 5.99001 19.4971 6.07343C19.5668 6.1531 19.5875 6.19081 19.5965 6.21154L20.5141 5.81394ZM20.5666 6.86682C20.677 6.52106 20.6584 6.14698 20.5141 5.81394L19.5965 6.21154C19.6446 6.32255 19.6508 6.44725 19.614 6.5625L20.5666 6.86682ZM20.0053 7.71869C20.1391 7.55518 20.2551 7.41381 20.3433 7.29006C20.4344 7.16225 20.5155 7.02677 20.5666 6.86682L19.614 6.56249C19.6071 6.58401 19.5903 6.6236 19.5289 6.7098C19.4645 6.80007 19.3736 6.91167 19.2314 7.08546L20.0053 7.71869ZM19.9921 7.73427L19.9921 7.73426L19.2447 7.06989L19.2446 7.06991L19.9921 7.73427ZM19.2925 8.70715C19.295 8.68866 19.3123 8.61952 19.4365 8.4408C19.558 8.26606 19.7388 8.04447 20.0053 7.71871L19.2314 7.08547C18.9755 7.39817 18.7646 7.65543 18.6154 7.8701C18.4689 8.08079 18.3368 8.31162 18.3015 8.57382L19.2925 8.70715ZM19.4848 9.17136C19.342 9.0624 19.2686 8.8852 19.2925 8.70715L18.3015 8.57382C18.2296 9.10794 18.4498 9.63956 18.8783 9.96643L19.4848 9.17136ZM20.688 9.36631C20.2691 9.32442 19.9845 9.29559 19.775 9.25789C19.5608 9.21934 19.4997 9.18267 19.4848 9.17136L18.8783 9.96643C19.0887 10.1269 19.3454 10.1966 19.5979 10.2421C19.8553 10.2884 20.1864 10.3211 20.5885 10.3613L20.688 9.36631ZM21.6878 9.57195C21.5385 9.49493 21.3852 9.45647 21.2304 9.43047C21.0805 9.40529 20.8984 9.38734 20.688 9.36631L20.5885 10.3613C20.8121 10.3837 20.9554 10.3983 21.0648 10.4167C21.1693 10.4342 21.2092 10.4503 21.2293 10.4606L21.6878 9.57195ZM22.3949 10.3533C22.2614 10.0159 22.0102 9.73831 21.6878 9.57195L21.2293 10.4606C21.3367 10.5161 21.4205 10.6086 21.465 10.7211L22.3949 10.3533ZM22.5 11.3684C22.5 11.157 22.5003 10.9741 22.4901 10.8224C22.4797 10.6658 22.4566 10.5095 22.3949 10.3533L21.465 10.7211C21.4733 10.7421 21.4853 10.7834 21.4923 10.8891C21.4997 10.9997 21.5 11.1438 21.5 11.3684H22.5ZM22.5 12.6322V11.3684H21.5V12.6322H22.5ZM22.3951 13.6461C22.4567 13.49 22.4797 13.3339 22.4902 13.1775C22.5003 13.026 22.5 12.8433 22.5 12.6322H21.5C21.5 12.8565 21.4997 13.0004 21.4924 13.1109C21.4853 13.2164 21.4733 13.2577 21.465 13.2787L22.3951 13.6461ZM21.6872 14.4284C22.0101 14.2619 22.2616 13.984 22.3951 13.6461L21.465 13.2787C21.4205 13.3913 21.3367 13.484 21.229 13.5395L21.6872 14.4284ZM20.6887 14.6336C20.8988 14.6126 21.0806 14.5947 21.2303 14.5696C21.385 14.5436 21.538 14.5052 21.6871 14.4284L21.229 13.5395C21.209 13.5498 21.1691 13.5658 21.0648 13.5834C20.9556 13.6017 20.8125 13.6163 20.5892 13.6386L20.6887 14.6336ZM19.4867 14.8283C19.5016 14.817 19.5626 14.7804 19.7767 14.7419C19.9859 14.7043 20.2703 14.6755 20.6887 14.6336L20.5892 13.6386C20.1875 13.6788 19.8567 13.7115 19.5996 13.7577C19.3473 13.8031 19.0908 13.8727 18.8806 14.033L19.4867 14.8283ZM19.2943 15.2929C19.2703 15.1147 19.3437 14.9373 19.4867 14.8283L18.8806 14.033C18.4516 14.3599 18.2311 14.8921 18.3033 15.4267L19.2943 15.2929ZM20.0068 16.2808C19.7404 15.9552 19.5597 15.7337 19.4383 15.5591C19.3141 15.3804 19.2968 15.3114 19.2943 15.2929L18.3033 15.4267C18.3387 15.6887 18.4708 15.9193 18.6172 16.1299C18.7663 16.3444 18.9771 16.6015 19.2328 16.914L20.0068 16.2808ZM20.568 17.1326C20.5169 16.9727 20.4358 16.8372 20.3448 16.7094C20.2566 16.5857 20.1406 16.4443 20.0068 16.2808L19.2328 16.914C19.375 17.0878 19.466 17.1994 19.5303 17.2897C19.5918 17.3759 19.6086 17.4155 19.6155 17.437L20.568 17.1326ZM20.5155 18.1857C20.6599 17.8526 20.6786 17.4784 20.568 17.1326L19.6155 17.437C19.6523 17.5523 19.6461 17.677 19.598 17.7881L20.5155 18.1857ZM19.8724 18.9774C20.0218 18.828 20.1512 18.6989 20.2513 18.5846C20.3546 18.4665 20.4488 18.3398 20.5155 18.1857L19.598 17.7881C19.589 17.8088 19.5683 17.8465 19.4986 17.9261C19.4257 18.0095 19.3241 18.1115 19.1653 18.2702L19.8724 18.9774ZM18.9791 19.8706L19.8724 18.9774L19.1653 18.2702L18.272 19.1635L18.9791 19.8706ZM18.1866 20.5143C18.3408 20.4476 18.4677 20.3533 18.5859 20.2499C18.7004 20.1498 18.8296 20.0202 18.9791 19.8706L18.272 19.1635C18.1131 19.3225 18.011 19.4242 17.9275 19.4972C17.8478 19.5669 17.8101 19.5877 17.7893 19.5966L18.1866 20.5143ZM17.1346 20.5668C17.4801 20.6771 17.8538 20.6584 18.1866 20.5143L17.7893 19.5966C17.6784 19.6447 17.5538 19.6509 17.4386 19.6141L17.1346 20.5668ZM16.282 20.0052C16.4456 20.1391 16.5871 20.2552 16.711 20.3434C16.8389 20.4345 16.9745 20.5157 17.1346 20.5668L17.4386 19.6141C17.4171 19.6073 17.3775 19.5904 17.2912 19.5289C17.2009 19.4646 17.0892 19.3735 16.9152 19.2312L16.282 20.0052ZM15.2927 19.2918C15.3112 19.2943 15.3804 19.3116 15.5593 19.4359C15.7342 19.5574 15.9559 19.7384 16.282 20.0052L16.9152 19.2312C16.6022 18.9751 16.3448 18.764 16.1299 18.6147C15.919 18.4682 15.688 18.3359 15.4256 18.3007L15.2927 19.2918ZM14.8288 19.484C14.9378 19.3413 15.1148 19.268 15.2927 19.2918L15.4256 18.3007C14.8919 18.2292 14.3608 18.4491 14.0341 18.8771L14.8288 19.484ZM14.6337 20.6879C14.6756 20.2687 14.7045 19.9839 14.7422 19.7743C14.7808 19.56 14.8175 19.4988 14.8288 19.484L14.0341 18.8771C13.8734 19.0875 13.8035 19.3444 13.758 19.5972C13.7117 19.8547 13.6789 20.186 13.6387 20.5884L14.6337 20.6879ZM14.4279 21.688C14.505 21.5387 14.5435 21.3854 14.5695 21.2305C14.5947 21.0805 14.6127 20.8983 14.6337 20.6879L13.6387 20.5884C13.6163 20.8121 13.6017 20.9554 13.5833 21.0648C13.5658 21.1693 13.5497 21.2092 13.5393 21.2293L14.4279 21.688ZM13.647 22.3948C13.9842 22.2613 14.2616 22.0102 14.4279 21.688L13.5393 21.2293C13.4839 21.3367 13.3914 21.4204 13.279 21.4649L13.647 22.3948ZM12.6314 22.5C12.8428 22.5 13.0259 22.5003 13.1776 22.4901C13.3343 22.4796 13.4907 22.4566 13.647 22.3948L13.279 21.4649C13.258 21.4732 13.2166 21.4853 13.1109 21.4923C13.0002 21.4997 12.8561 21.5 12.6314 21.5V22.5ZM11.3684 22.5H12.6314V21.5H11.3684V22.5ZM10.3533 22.3949C10.5095 22.4566 10.6658 22.4797 10.8224 22.4901C10.9741 22.5003 11.157 22.5 11.3684 22.5V21.5C11.1437 21.5 10.9997 21.4997 10.8891 21.4924C10.7834 21.4853 10.7421 21.4733 10.7211 21.465L10.3533 22.3949ZM9.57194 21.6877C9.7383 22.0102 10.0159 22.2614 10.3533 22.3949L10.7211 21.465C10.6086 21.4205 10.5161 21.3367 10.4606 21.2292L9.57194 21.6877ZM9.36632 20.6882C9.38735 20.8985 9.4053 21.0805 9.43047 21.2304C9.45647 21.3853 9.49492 21.5385 9.57194 21.6877L10.4606 21.2292C10.4503 21.2092 10.4342 21.1692 10.4167 21.0648C10.3983 20.9555 10.3837 20.8122 10.3614 20.5887L9.36632 20.6882ZM9.17131 19.4848C9.18264 19.4997 9.21932 19.5608 9.25789 19.7751C9.29559 19.9846 9.32443 20.2692 9.36632 20.6882L10.3614 20.5887C10.3211 20.1865 10.2884 19.8553 10.2421 19.5979C10.1966 19.3454 10.1268 19.0886 9.96628 18.8782L9.17131 19.4848ZM8.70725 19.2926C8.88523 19.2687 9.06237 19.3421 9.17131 19.4848L9.96628 18.8782C9.63945 18.4499 9.10804 18.2298 8.5741 18.3015L8.70725 19.2926ZM7.71839 20.0057C8.04429 19.739 8.26597 19.5581 8.44079 19.4366C8.61959 19.3124 8.68876 19.2951 8.70725 19.2926L8.5741 18.3015C8.31179 18.3368 8.08087 18.469 7.87011 18.6155C7.65535 18.7647 7.39799 18.9758 7.08515 19.2317L7.71839 20.0057ZM6.86602 20.5672C7.02607 20.5161 7.16162 20.4349 7.2895 20.3438C7.41333 20.2556 7.55478 20.1395 7.71839 20.0057L7.08515 19.2317C6.91126 19.374 6.79959 19.465 6.70927 19.5294C6.62301 19.5908 6.5834 19.6077 6.56187 19.6146L6.86602 20.5672ZM5.81366 20.5147C6.14656 20.6589 6.52043 20.6775 6.86602 20.5672L6.56188 19.6146C6.44668 19.6514 6.32205 19.6451 6.21109 19.5971L5.81366 20.5147ZM5.02143 19.8712C5.1709 20.0207 5.30009 20.1502 5.41452 20.2503C5.5327 20.3537 5.6595 20.4479 5.81366 20.5147L6.21109 19.5971C6.19035 19.5881 6.15262 19.5674 6.07291 19.4977C5.98945 19.4246 5.8874 19.323 5.72854 19.1641L5.02143 19.8712ZM4.12814 18.9779L5.02143 19.8712L5.72854 19.1641L4.83525 18.2708L4.12814 18.9779ZM4.10539 18.9536L4.1054 18.9536L4.85798 18.2951L4.85797 18.2951L4.10539 18.9536ZM3.48486 18.186C3.55162 18.3401 3.64583 18.4669 3.74917 18.585C3.84922 18.6994 3.97873 18.8285 4.12813 18.9779L4.83524 18.2708C4.67644 18.112 4.5748 18.01 4.50182 17.9266C4.43213 17.8469 4.41141 17.8092 4.40243 17.7885L3.48486 18.186ZM3.43235 17.1332C3.32191 17.479 3.34057 17.853 3.48486 18.186L4.40243 17.7885C4.35434 17.6775 4.34812 17.5528 4.38493 17.4375L3.43235 17.1332ZM3.99372 16.2812C3.8599 16.4447 3.74386 16.5861 3.65567 16.7099C3.56459 16.8378 3.48345 16.9733 3.43235 17.1332L4.38493 17.4375C4.3918 17.416 4.40866 17.3764 4.4701 17.2902C4.53444 17.1999 4.62544 17.0883 4.76768 16.9144L3.99372 16.2812ZM4.70647 15.2928C4.70398 15.3113 4.68669 15.3804 4.56248 15.5591C4.44104 15.7339 4.26023 15.9554 3.99372 16.2812L4.76768 16.9144C5.02351 16.6017 5.23444 16.3445 5.38362 16.1299C5.53002 15.9192 5.66221 15.6885 5.69752 15.4263L4.70647 15.2928ZM4.51414 14.8285C4.65703 14.9375 4.73046 15.1147 4.70647 15.2928L5.69752 15.4263C5.76949 14.892 5.54921 14.3602 5.12052 14.0333L4.51414 14.8285ZM3.31153 14.6336C3.73022 14.6755 4.01469 14.7043 4.22406 14.742C4.43821 14.7805 4.49931 14.8172 4.51414 14.8285L5.12053 14.0333C4.91021 13.8729 4.65359 13.8032 4.40115 13.7578C4.14393 13.7115 3.81295 13.6788 3.41104 13.6386L3.31153 14.6336ZM3.36128 14.6361H3.36128V13.6361H3.36128V14.6361ZM2.31258 14.4282C2.46178 14.5052 2.61489 14.5436 2.76962 14.5695C2.91943 14.5947 3.10137 14.6126 3.31152 14.6336L3.41103 13.6386C3.18766 13.6163 3.04446 13.6017 2.93519 13.5833C2.83083 13.5658 2.79093 13.5498 2.77086 13.5394L2.31258 14.4282ZM1.605 13.6464C1.73846 13.984 1.98987 14.2618 2.31258 14.4282L2.77086 13.5394C2.66329 13.484 2.57949 13.3914 2.535 13.2788L1.605 13.6464ZM1.5 12.6319C1.5 12.8431 1.49974 13.026 1.50986 13.1775C1.52031 13.3341 1.5433 13.4902 1.605 13.6464L2.535 13.2788C2.5267 13.2578 2.51469 13.2165 2.50764 13.1109C2.50026 13.0004 2.5 12.8564 2.5 12.6319H1.5ZM1.5 11.3686V12.6319H2.5V11.3686H1.5ZM1.60526 10.353C1.54341 10.5093 1.52036 10.6656 1.50988 10.8224C1.49974 10.9741 1.5 11.1572 1.5 11.3686H2.5C2.5 11.1439 2.50026 10.9998 2.50766 10.8891C2.51472 10.7834 2.52677 10.742 2.53509 10.721L1.60526 10.353ZM2.31196 9.57209C1.98975 9.73842 1.7387 10.0158 1.60526 10.353L2.53509 10.721C2.57957 10.6086 2.66325 10.5161 2.77065 10.4607L2.31196 9.57209ZM3.31228 9.36628C3.1018 9.38733 2.91959 9.40529 2.76958 9.43048C2.61465 9.4565 2.46133 9.49499 2.31196 9.57209L2.77066 10.4607C2.79074 10.4503 2.83069 10.4342 2.93521 10.4167C3.04465 10.3983 3.18808 10.3837 3.41178 10.3613L3.31228 9.36628ZM4.51601 9.17122C4.50118 9.18254 4.44005 9.21923 4.22568 9.25781C4.01612 9.29552 3.73136 9.32437 3.31228 9.36628L3.41178 10.3613C3.81408 10.3211 4.14537 10.2883 4.4028 10.242C4.65543 10.1965 4.91226 10.1268 5.12267 9.96618L4.51601 9.17122ZM4.70823 8.70717C4.73214 8.88515 4.65877 9.06228 4.51601 9.17122L5.12267 9.96618C5.55094 9.63935 5.77105 9.10796 5.69932 8.57403L4.70823 8.70717ZM3.99523 7.71838C4.26185 8.04425 4.44274 8.26592 4.56422 8.44072C4.68846 8.61951 4.70574 8.68867 4.70823 8.70717L5.69932 8.57403C5.66408 8.31172 5.53186 8.08081 5.38539 7.87005C5.23616 7.6553 5.02512 7.39796 4.76919 7.08514L3.99523 7.71838ZM3.9822 7.70176L3.98221 7.70176L4.78221 7.10176L4.7822 7.10176L3.9822 7.70176ZM4.02865 7.75531L4.02865 7.75531L4.73576 7.0482L4.73575 7.0482L4.02865 7.75531ZM3.43382 6.86618C3.48492 7.0262 3.56606 7.16172 3.65715 7.28958C3.74535 7.41338 3.86139 7.5548 3.99522 7.71837L4.76918 7.08513C4.62694 6.91128 4.53593 6.79964 4.4716 6.70934C4.41016 6.62311 4.3933 6.58351 4.38643 6.56198L3.43382 6.86618ZM3.48631 5.81366C3.34209 6.14661 3.32344 6.52054 3.43382 6.86618L4.38643 6.56198C4.34963 6.44677 4.35585 6.32212 4.40392 6.21114L3.48631 5.81366ZM4.12973 5.02156C3.98029 5.171 3.85075 5.30018 3.75067 5.41459C3.64731 5.53275 3.55308 5.65953 3.48631 5.81366L4.40392 6.21114C4.41291 6.19041 4.43362 6.15268 4.50334 6.07299C4.57634 5.98954 4.678 5.8875 4.83684 5.72867L4.12973 5.02156ZM5.02335 4.12795L4.12973 5.02156L4.83684 5.72867L5.73045 4.83505L5.02335 4.12795ZM5.81453 3.48513C5.66059 3.55188 5.53396 3.64603 5.41594 3.74929C5.30166 3.84927 5.17262 3.97867 5.02335 4.12795L5.73045 4.83505C5.88912 4.67639 5.99104 4.57483 6.07439 4.50191C6.154 4.43226 6.19168 4.41156 6.21239 4.40258L5.81453 3.48513ZM6.86819 3.43257C6.5222 3.32193 6.1478 3.3406 5.81453 3.48513L6.21239 4.40258C6.32348 4.3544 6.44827 4.34818 6.56361 4.38506L6.86819 3.43257ZM7.71942 3.99348C7.55603 3.8598 7.41476 3.74388 7.2911 3.65576C7.16338 3.56476 7.02801 3.48368 6.86819 3.43257L6.56361 4.38506C6.5851 4.39193 6.62466 4.40879 6.7108 4.47017C6.801 4.53444 6.91252 4.62535 7.08619 4.76744L7.71942 3.99348ZM7.73206 4.00418L7.73206 4.00417L7.07355 4.75675L7.07356 4.75676L7.73206 4.00418ZM8.70711 4.70578C8.68864 4.70329 8.61955 4.68599 8.44096 4.56186C8.26636 4.4405 8.04494 4.25981 7.71943 3.99349L7.08619 4.76745C7.39866 5.0231 7.65572 5.2339 7.87022 5.38299C8.08074 5.52931 8.31137 5.66144 8.57335 5.6968L8.70711 4.70578ZM9.17165 4.51336C9.06266 4.65636 8.88529 4.72983 8.70711 4.70578L8.57335 5.6968C9.1079 5.76894 9.64002 5.54853 9.96698 5.11954L9.17165 4.51336ZM9.36637 3.31131C9.32453 3.7298 9.29572 4.01413 9.25808 4.2234C9.21957 4.43746 9.18295 4.49854 9.17165 4.51336L9.96698 5.11954C10.1272 4.90929 10.1969 4.65278 10.2423 4.40046C10.2885 4.14336 10.3212 3.81253 10.3614 3.41082L9.36637 3.31131ZM9.57165 2.31282C9.49479 2.46196 9.4564 2.61501 9.43044 2.76966C9.40531 2.9194 9.38738 3.10126 9.36637 3.31131L10.3614 3.41082C10.3837 3.18755 10.3983 3.04442 10.4166 2.9352C10.4342 2.83089 10.4502 2.791 10.4605 2.77094L9.57165 2.31282ZM10.3539 1.60491C10.016 1.73837 9.73807 1.98991 9.57165 2.31282L10.4605 2.77094C10.516 2.6633 10.6087 2.57946 10.7213 2.53497L10.3539 1.60491ZM11.3679 1.5C11.1567 1.5 10.974 1.49974 10.8225 1.50985C10.666 1.52029 10.5099 1.54326 10.3539 1.60491L10.7213 2.53497C10.7423 2.52668 10.7836 2.51468 10.8891 2.50763C10.9996 2.50026 11.1435 2.5 11.3679 2.5V1.5ZM12.6319 1.5H11.3679V2.5H12.6319V1.5ZM13.6464 1.60502C13.4903 1.54331 13.3341 1.52032 13.1775 1.50986C13.026 1.49974 12.8431 1.5 12.6319 1.5V2.5C12.8564 2.5 13.0003 2.50026 13.1109 2.50764C13.2165 2.51469 13.2578 2.5267 13.2788 2.53501L13.6464 1.60502ZM14.4282 2.31255C14.2618 1.98986 13.984 1.73847 13.6464 1.60502L13.2788 2.53501C13.3914 2.57949 13.4839 2.66329 13.5394 2.77085L14.4282 2.31255ZM14.6337 3.3116C14.6126 3.10142 14.5947 2.91945 14.5695 2.76963C14.5436 2.61489 14.5051 2.46176 14.4282 2.31255L13.5394 2.77085C13.5498 2.79092 13.5658 2.83082 13.5833 2.9352C13.6017 3.04449 13.6163 3.18771 13.6386 3.41111L14.6337 3.3116ZM15.5 12C15.5 13.933 13.933 15.5 12 15.5V16.5C14.4853 16.5 16.5 14.4853 16.5 12H15.5ZM12 8.5C13.933 8.5 15.5 10.067 15.5 12H16.5C16.5 9.51472 14.4853 7.5 12 7.5V8.5ZM8.5 12C8.5 10.067 10.067 8.5 12 8.5V7.5C9.51472 7.5 7.5 9.51472 7.5 12H8.5ZM12 15.5C10.067 15.5 8.5 13.933 8.5 12H7.5C7.5 14.4853 9.51472 16.5 12 16.5V15.5Z" fill="#323232"/>
</svg>
