<svg width="24" height="24" viewBox="0 0 24 24" fill="none" xmlns="http://www.w3.org/2000/svg">
<path d="M9 6C9 6.39397 9.0776 6.78407 9.22836 7.14805C9.37913 7.51203 9.6001 7.84274 9.87868 8.12132C10.1573 8.3999 10.488 8.62087 10.852 8.77164C11.2159 8.9224 11.606 9 12 9C12.394 9 12.7841 8.9224 13.1481 8.77164C13.512 8.62087 13.8427 8.3999 14.1213 8.12132C14.3999 7.84274 14.6209 7.51203 14.7716 7.14805C14.9224 6.78407 15 6.39396 15 6C15 5.60603 14.9224 5.21593 14.7716 4.85195C14.6209 4.48797 14.3999 4.15725 14.1213 3.87868C13.8427 3.6001 13.512 3.37912 13.148 3.22836C12.7841 3.0776 12.394 3 12 3C11.606 3 11.2159 3.0776 10.8519 3.22836C10.488 3.37913 10.1573 3.6001 9.87868 3.87868C9.6001 4.15726 9.37912 4.48797 9.22836 4.85195C9.0776 5.21593 9 5.60604 9 6L9 6Z" stroke="#323232"/>
<path d="M4.43708 13.9015C4.0959 14.0985 3.79685 14.3607 3.55702 14.6733C3.31719 14.9858 3.14127 15.3426 3.0393 15.7231C2.93734 16.1037 2.91132 16.5006 2.96275 16.8912C3.01417 17.2818 3.14202 17.6584 3.339 17.9996C3.53599 18.3408 3.79824 18.6398 4.1108 18.8796C4.42335 19.1195 4.78008 19.2954 5.16062 19.3974C5.54117 19.4993 5.93806 19.5253 6.32866 19.4739C6.71925 19.4225 7.0959 19.2946 7.43708 19.0977C7.77827 18.9007 8.07731 18.6384 8.31714 18.3259C8.55697 18.0133 8.73289 17.6566 8.83486 17.276C8.93682 16.8955 8.96284 16.4986 8.91141 16.108C8.85999 15.7174 8.73214 15.3408 8.53516 14.9996C8.33817 14.6584 8.07592 14.3594 7.76336 14.1195C7.45081 13.8797 7.09408 13.7038 6.71354 13.6018C6.33299 13.4998 5.9361 13.4738 5.5455 13.5252C5.1549 13.5767 4.77826 13.7045 4.43708 13.9015L4.43708 13.9015Z" stroke="#323232"/>
<path d="M19.5629 13.9015C19.9041 14.0985 20.2031 14.3607 20.443 14.6733C20.6828 14.9859 20.8587 15.3426 20.9607 15.7231C21.0627 16.1037 21.0887 16.5006 21.0373 16.8912C20.9858 17.2818 20.858 17.6584 20.661 17.9996C20.464 18.3408 20.2018 18.6398 19.8892 18.8796C19.5766 19.1195 19.2199 19.2954 18.8394 19.3974C18.4588 19.4993 18.0619 19.5253 17.6713 19.4739C17.2807 19.4225 16.9041 19.2946 16.5629 19.0977C16.2217 18.9007 15.9227 18.6384 15.6829 18.3259C15.443 18.0133 15.2671 17.6566 15.1651 17.276C15.0632 16.8955 15.0372 16.4986 15.0886 16.108C15.14 15.7174 15.2679 15.3408 15.4648 14.9996C15.6618 14.6584 15.9241 14.3594 16.2366 14.1195C16.5492 13.8797 16.9059 13.7038 17.2865 13.6018C17.667 13.4998 18.0639 13.4738 18.4545 13.5252C18.8451 13.5767 19.2217 13.7045 19.5629 13.9015L19.5629 13.9015Z" stroke="#323232"/>
<path d="M7.62109 13.574L10.5234 8.84033" stroke="#323232" stroke-linecap="round"/>
<path d="M9.07031 16.4995L15.0763 16.4995" stroke="#323232" stroke-linecap="round"/>
</svg>
