<svg width="24" height="24" viewBox="0 0 24 24" fill="none" xmlns="http://www.w3.org/2000/svg">
<path d="M6.33333 9.12999H4.66667C3.2 9.12999 2 10.3221 2 11.7792V13.1038C2 14.5609 3.2 15.7531 4.66667 15.7531H6.33333L6.33333 7.14306C6.33333 4.95744 9.67008 3.16919 11.8701 3.16919L11.8581 3.16921C14.0581 3.16921 17.6667 4.95744 17.6667 7.14306L17.6667 15.7531M17.6667 9.12999H19.3333C20.8 9.12999 22 10.3221 22 11.7792V13.1038C22 14.5609 20.8 15.7531 19.3333 15.7531H17.6667M17.6667 15.7531C17.6667 17.6627 16.3 19.2633 14.4889 19.6386M13.1667 20.8308H10.8333C10.1 20.8308 9.5 20.2347 9.5 19.5062C9.5 18.7776 10.1 18.1816 10.8333 18.1816H13.1667C13.9 18.1816 14.5 18.7776 14.5 19.5062C14.5 20.2347 13.9 20.8308 13.1667 20.8308Z" stroke="#323232" stroke-miterlimit="10" stroke-linecap="round" stroke-linejoin="round"/>
</svg>
