<svg width="24" height="25" viewBox="0 0 24 25" fill="none" xmlns="http://www.w3.org/2000/svg">
<path fill-rule="evenodd" clip-rule="evenodd" d="M4.23741 11.8584C9.06923 9.75322 12.2912 8.36537 13.9033 7.69484C18.5063 5.78032 19.4627 5.44774 20.0861 5.43676C20.2232 5.43435 20.5298 5.46833 20.7284 5.62946C20.8961 5.76552 20.9422 5.94932 20.9643 6.07832C20.9864 6.20732 21.0139 6.50119 20.992 6.73081C20.7426 9.35164 19.6633 15.7117 19.1142 18.6471C18.8818 19.8891 18.4244 20.3056 17.9815 20.3464C17.0189 20.4349 16.288 19.7103 15.3558 19.0992C13.897 18.1429 13.0729 17.5477 11.6569 16.6145C10.0205 15.5362 11.0813 14.9435 12.0139 13.9748C12.258 13.7213 16.4988 9.86393 16.5809 9.514C16.5912 9.47024 16.6007 9.3071 16.5038 9.22096C16.4069 9.13482 16.2639 9.16428 16.1606 9.18771C16.0143 9.22091 13.6839 10.7612 9.16938 13.8087C8.5079 14.2629 7.90875 14.4842 7.37193 14.4726C6.78013 14.4598 5.64175 14.138 4.79548 13.8629C3.75749 13.5255 2.93252 13.3471 3.00436 12.7741C3.04178 12.4756 3.45279 12.1704 4.23741 11.8584Z" fill="#ADACAC"/>
</svg>
