<svg width="25" height="25" viewBox="0 0 25 25" fill="none" xmlns="http://www.w3.org/2000/svg">
<path d="M9.85352 14.6323L9.85352 11.6323" stroke="#414141" stroke-linecap="round" stroke-linejoin="round"/>
<path d="M14.8535 14.6323L14.8535 11.6323" stroke="#414141" stroke-linecap="round" stroke-linejoin="round"/>
<path d="M3.35352 6.63232H21.3535V6.63232C19.9491 6.63232 19.2468 6.63232 18.7424 6.96938C18.524 7.1153 18.3365 7.3028 18.1906 7.52118C17.8535 8.02563 17.8535 8.72786 17.8535 10.1323V15.6323C17.8535 17.5179 17.8535 18.4608 17.2677 19.0465C16.6819 19.6323 15.7391 19.6323 13.8535 19.6323H10.8535C8.9679 19.6323 8.02509 19.6323 7.4393 19.0465C6.85352 18.4608 6.85352 17.5179 6.85352 15.6323V10.1323C6.85352 8.72786 6.85352 8.02563 6.51645 7.52118C6.37054 7.3028 6.18304 7.1153 5.96466 6.96938C5.46021 6.63232 4.75798 6.63232 3.35352 6.63232V6.63232Z" stroke="#414141" stroke-linecap="round" stroke-linejoin="round"/>
<path d="M9.85352 3.63257C9.85352 3.63257 10.3535 2.63232 12.3535 2.63232C14.3535 2.63232 14.8535 3.63232 14.8535 3.63232" stroke="#414141" stroke-linecap="round" stroke-linejoin="round"/>
</svg>
