<svg width="17" height="17" viewBox="0 0 17 17" fill="none" xmlns="http://www.w3.org/2000/svg">
<path d="M6.68359 9.79899L6.68359 7.79899" stroke="#323232" stroke-linecap="round" stroke-linejoin="round"/>
<path d="M10.0195 9.79899L10.0195 7.79899" stroke="#323232" stroke-linecap="round" stroke-linejoin="round"/>
<path d="M2.35156 4.46566H14.3516V4.46566C14.0419 4.46566 13.8871 4.46566 13.7572 4.48277C12.8597 4.60092 12.1535 5.30714 12.0353 6.2046C12.0182 6.33457 12.0182 6.48938 12.0182 6.79899V9.79899C12.0182 11.3627 12.0182 12.1446 11.6049 12.6832C11.4985 12.8218 11.3744 12.946 11.2358 13.0524C10.6971 13.4657 9.91528 13.4657 8.35156 13.4657V13.4657C6.78785 13.4657 6.00599 13.4657 5.46737 13.0524C5.32871 12.946 5.20459 12.8218 5.09819 12.6832C4.6849 12.1446 4.6849 11.3627 4.6849 9.79899V6.79899C4.6849 6.48938 4.6849 6.33457 4.66779 6.2046C4.54963 5.30714 3.84342 4.60092 2.94595 4.48277C2.81598 4.46566 2.66118 4.46566 2.35156 4.46566V4.46566Z" stroke="#323232" stroke-linecap="round" stroke-linejoin="round"/>
<path d="M7.01562 2.79895C7.01562 2.79895 7.31562 1.79895 8.51562 1.79895C9.71562 1.79895 10.0156 2.79871 10.0156 2.79871" stroke="#323232" stroke-linecap="round" stroke-linejoin="round"/>
</svg>
