<svg width="24" height="25" viewBox="0 0 24 25" fill="none" xmlns="http://www.w3.org/2000/svg">
<path d="M9.5 14.9492L9.5 11.9492" stroke="#323232" stroke-linecap="round" stroke-linejoin="round"/>
<path d="M14.5 14.9492L14.5 11.9492" stroke="#323232" stroke-linecap="round" stroke-linejoin="round"/>
<path d="M3 6.94922H21V6.94922C19.5955 6.94922 18.8933 6.94922 18.3889 7.28628C18.1705 7.4322 17.983 7.6197 17.8371 7.83808C17.5 8.34253 17.5 9.04476 17.5 10.4492V15.9492C17.5 17.8348 17.5 18.7776 16.9142 19.3634C16.3284 19.9492 15.3856 19.9492 13.5 19.9492H10.5C8.61438 19.9492 7.67157 19.9492 7.08579 19.3634C6.5 18.7776 6.5 17.8348 6.5 15.9492V10.4492C6.5 9.04476 6.5 8.34253 6.16294 7.83808C6.01702 7.6197 5.82952 7.4322 5.61114 7.28628C5.10669 6.94922 4.40446 6.94922 3 6.94922V6.94922Z" stroke="#323232" stroke-linecap="round" stroke-linejoin="round"/>
<path d="M9.5 3.94946C9.5 3.94946 10 2.94922 12 2.94922C14 2.94922 14.5 3.94922 14.5 3.94922" stroke="#323232" stroke-linecap="round" stroke-linejoin="round"/>
</svg>
