<svg width="16" height="16" viewBox="0 0 16 16" fill="none" xmlns="http://www.w3.org/2000/svg">
<path d="M6.33203 9.66675L6.33203 7.66675" stroke="#323232" stroke-linecap="round" stroke-linejoin="round"/>
<path d="M9.66797 9.66675L9.66797 7.66675" stroke="#323232" stroke-linecap="round" stroke-linejoin="round"/>
<path d="M2 4.33325H14V4.33325C13.6904 4.33325 13.5356 4.33325 13.4056 4.35036C12.5081 4.46852 11.8019 5.17473 11.6838 6.0722C11.6667 6.20217 11.6667 6.35697 11.6667 6.66659V9.66659C11.6667 11.2303 11.6667 12.0122 11.2534 12.5508C11.147 12.6894 11.0229 12.8136 10.8842 12.92C10.3456 13.3333 9.56372 13.3333 8 13.3333V13.3333C6.43628 13.3333 5.65443 13.3333 5.11581 12.92C4.97715 12.8136 4.85303 12.6894 4.74663 12.5508C4.33333 12.0122 4.33333 11.2303 4.33333 9.66659V6.66659C4.33333 6.35697 4.33333 6.20217 4.31622 6.0722C4.19807 5.17473 3.49185 4.46852 2.59439 4.35036C2.46442 4.33325 2.30961 4.33325 2 4.33325V4.33325Z" stroke="#323232" stroke-linecap="round" stroke-linejoin="round"/>
<path d="M6.66406 2.6665C6.66406 2.6665 6.96406 1.6665 8.16406 1.6665C9.36406 1.6665 9.66406 2.66626 9.66406 2.66626" stroke="#323232" stroke-linecap="round" stroke-linejoin="round"/>
</svg>
