<svg width="24" height="24" viewBox="0 0 24 24" fill="none" xmlns="http://www.w3.org/2000/svg">
<path fill-rule="evenodd" clip-rule="evenodd" d="M15.9202 12.7988C15.9725 12.5407 16 12.2736 16 12C16 9.79086 14.2091 8 12 8C11.7264 8 11.4593 8.02746 11.2012 8.07977L12.1239 9.00251C13.6822 9.06583 14.9342 10.3178 14.9975 11.8761L15.9202 12.7988ZM9.39311 10.5143C9.14295 10.9523 9 11.4595 9 12C9 13.6569 10.3431 15 12 15C12.5405 15 13.0477 14.857 13.4857 14.6069L14.212 15.3332C13.5784 15.7545 12.8179 16 12 16C9.79086 16 8 14.2091 8 12C8 11.1821 8.24547 10.4216 8.66676 9.78799L9.39311 10.5143Z" fill="#323232"/>
<path fill-rule="evenodd" clip-rule="evenodd" d="M18.5599 15.4985C19.4013 14.7404 20.0881 13.9744 20.5747 13.3836L20.6335 13.3124C20.9641 12.913 21.271 12.5421 21.271 12C21.271 11.4579 20.9641 11.087 20.6335 10.6876L20.5747 10.6164C19.8498 9.73623 18.6806 8.46727 17.2176 7.41472C15.7586 6.365 13.9646 5.5 12.0007 5.5C10.998 5.5 10.0396 5.72551 9.14737 6.08597L9.9244 6.86299C10.5947 6.63362 11.2903 6.5 12.0007 6.5C13.6726 6.5 15.2626 7.24007 16.6336 8.22646C18.0007 9.21001 19.1077 10.4082 19.8028 11.2522C20.2272 11.7674 20.271 11.8565 20.271 12C20.271 12.1435 20.2272 12.2326 19.8028 12.7478C19.3283 13.3239 18.6619 14.0651 17.8518 14.7904L18.5599 15.4985ZM8.46422 7.52414C8.0859 7.73646 7.71967 7.97335 7.36787 8.22646C6.00079 9.21001 4.89379 10.4082 4.19865 11.2522C3.7743 11.7674 3.73047 11.8565 3.73047 12C3.73047 12.1435 3.7743 12.2326 4.19865 12.7478C4.89379 13.5918 6.00079 14.79 7.36787 15.7735C8.73889 16.7599 10.3289 17.5 12.0007 17.5C13.6726 17.5 15.2626 16.7599 16.6336 15.7735C16.6491 15.7624 16.6646 15.7512 16.6801 15.74L17.3954 16.4553C17.3366 16.499 17.2774 16.5423 17.2176 16.5853C15.7586 17.635 13.9646 18.5 12.0007 18.5C10.0368 18.5 8.24289 17.635 6.78385 16.5853C5.32087 15.5327 4.15172 14.2638 3.42677 13.3836L3.36796 13.3124C3.03744 12.913 2.73047 12.5421 2.73047 12C2.73047 11.4579 3.03744 11.087 3.36796 10.6876L3.42677 10.6164C4.15173 9.73623 5.32087 8.46727 6.78386 7.41472C7.08611 7.19726 7.40273 6.98773 7.73226 6.79218L8.46422 7.52414Z" fill="#323232"/>
<path d="M5 2L21 18" stroke="#323232"/>
</svg>
