<svg width="24" height="25" viewBox="0 0 24 25" fill="none" xmlns="http://www.w3.org/2000/svg">
<path fill-rule="evenodd" clip-rule="evenodd" d="M21.5411 8.06126C21.6801 7.62465 21.5411 7.30383 20.8794 7.30383H18.6914C18.135 7.30383 17.8786 7.58097 17.7395 7.88658C17.7395 7.88658 16.6268 10.4407 15.0505 12.0997C14.5406 12.58 14.3087 12.7328 14.0306 12.7328C13.8915 12.7328 13.6902 12.58 13.6902 12.1434V8.06126C13.6902 7.53733 13.5287 7.30383 13.0651 7.30383H9.62678C9.27911 7.30383 9.07003 7.547 9.07003 7.77746C9.07003 8.27413 9.85811 8.38866 9.93935 9.78579V12.8201C9.93935 13.4854 9.81177 13.606 9.5336 13.606C8.79186 13.606 6.98756 11.0405 5.91744 8.1049C5.70773 7.53432 5.49738 7.30383 4.93819 7.30383H2.75018C2.12504 7.30383 2 7.58097 2 7.88658C2 8.43234 2.74178 11.1392 5.45387 14.7193C7.26191 17.1642 9.80932 18.4896 12.1274 18.4896C13.5182 18.4896 13.6902 18.1952 13.6902 17.6882V15.8403C13.6902 15.2516 13.822 15.1341 14.2624 15.1341C14.5869 15.1341 15.1433 15.2869 16.4414 16.4657C17.9249 17.8628 18.1695 18.4896 19.004 18.4896H21.192C21.8171 18.4896 22.1297 18.1952 21.9494 17.6143C21.752 17.0353 21.0437 16.1953 20.1039 15.1996C19.5939 14.632 18.8289 14.0208 18.5971 13.7151C18.2726 13.3222 18.3653 13.1476 18.5971 12.7983C18.5971 12.7983 21.2629 9.26187 21.5411 8.06126Z" fill="#ADACAC"/>
</svg>
