<svg width="24" height="25" viewBox="0 0 24 25" fill="none" xmlns="http://www.w3.org/2000/svg">
<path d="M7.1676 20.9508C7.1676 20.6161 7.1676 20.2814 7.1676 19.9467C7.16998 19.9331 7.1695 19.919 7.16618 19.9055C7.16287 19.8921 7.15679 19.8794 7.14833 19.8683C7.13987 19.8572 7.12921 19.848 7.117 19.8412C7.10479 19.8343 7.09129 19.8301 7.07734 19.8286C6.23944 19.593 5.46606 19.1732 4.81484 18.6005C4.34036 18.1732 3.9453 17.6668 3.64764 17.1043C3.2281 16.2918 2.94888 15.4155 2.82158 14.5117C2.66384 13.378 2.60906 12.2326 2.65789 11.0892C2.6686 10.5562 2.69614 10.0292 2.75733 9.49614C2.85491 8.48318 3.11303 7.49175 3.5222 6.55828C4.02745 5.41055 4.94404 4.48862 6.09524 3.97024C6.87945 3.61499 7.70445 3.35563 8.55202 3.19792C9.3832 3.04206 10.2248 2.94641 11.07 2.9117C11.8319 2.88503 12.5947 2.89615 13.3554 2.94502C14.4443 2.99052 15.5233 3.16905 16.5679 3.47656C17.3424 3.69758 18.0792 4.0319 18.7539 4.46846C19.4113 4.91522 19.943 5.52027 20.299 6.22664C20.7174 7.05164 21.0019 7.9368 21.1419 8.84951C21.2328 9.39138 21.2926 9.93794 21.3209 10.4865C21.3606 11.1665 21.356 11.8495 21.33 12.5264C21.304 13.2033 21.2459 13.8605 21.1618 14.5238C21.0554 15.5194 20.7463 16.4832 20.2531 17.3572C19.6111 18.4628 18.5827 19.2977 17.3619 19.7044C16.527 19.9938 15.6651 20.1998 14.7888 20.3193C14.1479 20.4071 13.5054 20.4707 12.8598 20.4964C12.3657 20.5192 11.8716 20.5131 11.3775 20.5055C11.0975 20.5055 10.8191 20.4783 10.5407 20.454C10.5134 20.4489 10.4851 20.452 10.4595 20.4628C10.4339 20.4735 10.4121 20.4916 10.3969 20.5146C9.83395 21.184 9.24959 21.8351 8.66063 22.4833C8.55335 22.6015 8.42914 22.7036 8.29196 22.7862C8.20192 22.8446 8.09924 22.8813 7.99222 22.8933C7.8852 22.9053 7.77685 22.8921 7.6759 22.855C7.57495 22.8178 7.48423 22.7577 7.41108 22.6795C7.33793 22.6012 7.2844 22.507 7.25479 22.4045C7.1965 22.2224 7.16759 22.0323 7.16913 21.8412C7.1676 21.5414 7.1676 21.2461 7.1676 20.9508ZM7.84834 22.2213L7.92024 22.1547L9.19758 20.7509C9.68914 20.2107 10.1802 19.6701 10.6707 19.129C10.6948 19.096 10.7274 19.0699 10.765 19.0534C10.8026 19.0369 10.844 19.0306 10.8849 19.0351C11.0516 19.0517 11.2184 19.0578 11.3867 19.0593C11.968 19.0593 12.5493 19.0593 13.1306 19.0184C13.6583 18.9775 14.1846 18.9139 14.7077 18.8322C15.271 18.7351 15.8287 18.6082 16.3782 18.4521C17.602 18.1265 18.5489 17.4299 19.144 16.3017C19.4953 15.608 19.7157 14.8567 19.7942 14.0846C19.8871 13.357 19.9428 12.6251 19.9609 11.8919C19.988 10.9707 19.9245 10.0492 19.7712 9.14026C19.6649 8.48174 19.4737 7.83944 19.2021 7.22914C18.8564 6.47196 18.3669 5.84502 17.6127 5.4422C16.4562 4.82434 15.2049 4.54873 13.9153 4.40789C13.5497 4.36852 13.1841 4.34732 12.817 4.33369C12.0652 4.29532 11.3119 4.29937 10.5606 4.3458C10.0203 4.3855 9.48288 4.45731 8.95129 4.56084C8.16951 4.70191 7.41322 4.95709 6.70714 5.31802C6.2978 5.52277 5.92643 5.79466 5.60878 6.12215C5.09397 6.69175 4.71634 7.36951 4.5043 8.10444C4.25276 8.96037 4.11544 9.8452 4.09586 10.7364C4.04664 11.6276 4.05788 12.5211 4.12951 13.4108C4.17408 13.9402 4.26363 14.465 4.39722 14.9796C4.59598 15.7815 4.98156 16.5263 5.52312 17.1543C6.10779 17.7949 6.86346 18.259 7.70301 18.4929C7.80856 18.5247 7.85599 18.5611 7.85599 18.6792C7.84681 19.1154 7.85599 19.5515 7.85599 19.9876L7.84834 22.2213Z" fill="#ADACAC"/>
<path d="M6.77638 8.69652C6.76567 8.36488 6.94771 8.1241 7.168 7.90754C7.45853 7.63203 7.77862 7.38879 8.12256 7.18216C8.2794 7.08641 8.46588 7.04993 8.64772 7.07942C8.82956 7.10891 8.99454 7.2024 9.11231 7.34269C9.52845 7.77572 9.90093 8.24791 10.2244 8.75255C10.3846 8.97956 10.5056 9.23135 10.5824 9.49762C10.6131 9.60153 10.6151 9.71169 10.5882 9.81662C10.5613 9.92155 10.5065 10.0174 10.4294 10.0943C10.2529 10.2658 10.0649 10.4251 9.86648 10.5713C9.76652 10.6502 9.69219 10.7564 9.65275 10.8767C9.61331 10.9971 9.6105 11.1263 9.64466 11.2482C9.76717 11.8208 10.0448 12.3495 10.4478 12.7777C10.9374 13.3695 11.5684 13.8311 12.2835 14.121C12.4592 14.2104 12.6606 14.2377 12.8541 14.1982C12.9601 14.1696 13.0543 14.1086 13.1233 14.024C13.2304 13.8893 13.3467 13.759 13.443 13.6152C13.568 13.4357 13.7589 13.3117 13.9749 13.2695C14.191 13.2274 14.4151 13.2704 14.5995 13.3895C15.1181 13.6874 15.6076 14.0321 16.062 14.4193C16.169 14.5101 16.2807 14.598 16.3878 14.6904C16.5145 14.786 16.606 14.9202 16.6483 15.0723C16.6906 15.2244 16.6813 15.386 16.6219 15.5323C16.5273 15.7785 16.3896 16.0061 16.2149 16.2047C15.9979 16.5033 15.7215 16.7548 15.4026 16.9437C15.2502 17.0323 15.079 17.0844 14.9026 17.0957C14.7262 17.107 14.5496 17.0772 14.3869 17.0088C13.1492 16.5156 11.9928 15.8423 10.9557 15.0114C9.94128 14.1847 9.0548 13.2153 8.32449 12.1341C7.70997 11.239 7.22109 10.2655 6.87122 9.24018C6.83397 9.11617 6.80333 8.9903 6.77944 8.8631C6.77264 8.80783 6.77161 8.75201 6.77638 8.69652Z" fill="#ADACAC"/>
<path d="M12.0605 7.08166C13.0961 7.10061 14.092 7.47874 14.8748 8.15012C15.6575 8.8215 16.1774 9.74354 16.3438 10.7555C16.4108 11.1234 16.4467 11.4962 16.4509 11.8701C16.4509 11.9579 16.428 12.0215 16.3331 12.0306C16.2383 12.0397 16.2138 11.9594 16.2138 11.8792C16.228 11.123 16.0712 10.3733 15.7549 9.68484C15.4885 9.11918 15.0939 8.62199 14.6017 8.23195C14.1095 7.84191 13.5331 7.56953 12.9172 7.43602C12.5916 7.36139 12.2586 7.32279 11.9244 7.32093C11.8919 7.32148 11.8594 7.3174 11.828 7.30882C11.8013 7.30136 11.7786 7.28393 11.7646 7.2602C11.7506 7.23647 11.7465 7.20829 11.7531 7.18161C11.7533 7.16895 11.756 7.15646 11.7611 7.14485C11.7662 7.13325 11.7737 7.12278 11.7829 7.11404C11.7922 7.1053 11.8031 7.09847 11.815 7.09395C11.827 7.08943 11.8397 7.08732 11.8525 7.08772C11.9213 7.07863 11.9917 7.08166 12.0605 7.08166Z" fill="#ADACAC"/>
<path d="M15.0114 11.19C15.0062 10.7693 14.9016 10.3556 14.7058 9.98217C14.51 9.60873 14.2285 9.28591 13.8839 9.0396C13.4818 8.75994 13.0143 8.58638 12.5255 8.53531C12.4429 8.52471 12.3603 8.52017 12.2762 8.51108C12.192 8.502 12.1416 8.46717 12.1492 8.38236C12.1568 8.29756 12.2104 8.26727 12.3022 8.27333C13.6575 8.35511 14.811 9.1138 15.1659 10.5267C15.2308 10.7991 15.2631 11.0782 15.2622 11.3581C15.2622 11.3838 15.2622 11.4096 15.2622 11.4338C15.2622 11.5095 15.2133 11.5595 15.1383 11.558C15.1217 11.5574 15.1054 11.5535 15.0903 11.5465C15.0753 11.5395 15.0618 11.5295 15.0508 11.5172C15.0398 11.5049 15.0314 11.4904 15.0262 11.4748C15.021 11.4592 15.0191 11.4426 15.0205 11.4262C15.0083 11.3551 15.0114 11.2824 15.0114 11.19Z" fill="#ADACAC"/>
<path d="M12.6396 9.50378C13.3831 9.55375 13.9017 9.91417 14.0439 10.6971C14.0612 10.7974 14.0735 10.8985 14.0807 11C14.0807 11.0817 14.0623 11.1514 13.972 11.1514C13.8818 11.1514 13.8512 11.0908 13.8481 11C13.8473 10.6999 13.7539 10.4071 13.5804 10.161C13.3981 9.93808 13.1364 9.79282 12.8492 9.75516C12.785 9.74327 12.7201 9.73518 12.6549 9.73093C12.5479 9.73093 12.4882 9.67793 12.502 9.59615C12.5157 9.51438 12.58 9.49923 12.6396 9.50378Z" fill="#ADACAC"/>
</svg>
